<?xml version="1.0" encoding="UTF-8"?>
<svg width="21px" height="21px" viewBox="0 0 21 21" version="1.1" xmlns="http://www.w3.org/2000/svg" xmlns:xlink="http://www.w3.org/1999/xlink">
    <!-- Generator: Sketch 43.1 (39012) - http://www.bohemiancoding.com/sketch -->
    <title>line-chart</title>
    <desc>Created with Sketch.</desc>
    <defs></defs>
    <g id="Symbols" stroke="none" stroke-width="1" fill="none" fill-rule="evenodd">
        <g id="sidenav" transform="translate(-21.000000, -41.000000)" fill-rule="nonzero" fill="#339ECD">
            <g id="menu-::-item">
                <g transform="translate(0.000000, 26.000000)">
                    <g id="line-chart" transform="translate(21.000000, 15.000000)">
                        <path d="M19.2069783,0 C18.233087,0 17.4469565,0.786065217 17.4469565,1.76002174 C17.4469565,2.73397826 18.2330217,3.52004348 19.2069783,3.52004348 C20.1809348,3.52004348 20.967,2.73397826 20.967,1.76002174 C20.9669348,0.786065217 20.1808696,0 19.2069783,0 Z M19.2069783,2.61567391 C18.7339565,2.61567391 18.3513261,2.23304348 18.3513261,1.76002174 C18.3513261,1.287 18.7339565,0.904369565 19.2069783,0.904369565 C19.68,0.904369565 20.0626304,1.287 20.0626304,1.76002174 C20.0626304,2.23304348 19.68,2.61567391 19.2069783,2.61567391 Z" id="Shape"></path>
                        <path d="M1.76002174,10.0312826 C0.786065217,10.0312826 0,10.817413 0,11.7913043 C0,12.7651957 0.786065217,13.5513261 1.76002174,13.5513261 C2.73397826,13.5513261 3.52004348,12.7652609 3.52004348,11.7913043 C3.52004348,10.8173478 2.73391304,10.0312826 1.76002174,10.0312826 Z M1.76002174,12.6469565 C1.287,12.6469565 0.904369565,12.2643261 0.904369565,11.7913043 C0.904369565,11.3182826 1.287,10.9356522 1.76002174,10.9356522 C2.23304348,10.9356522 2.61567391,11.3182826 2.61567391,11.7913043 C2.61567391,12.2643261 2.23304348,12.6469565 1.76002174,12.6469565 Z" id="Shape"></path>
                        <path d="M6.99130435,4.8 C6.01741304,4.8 5.23128261,5.58606522 5.23128261,6.56002174 C5.23128261,7.53391304 6.01734783,8.32004348 6.99130435,8.32004348 C7.96519565,8.32004348 8.75132609,7.53397826 8.75132609,6.56002174 C8.75132609,5.58606522 7.96519565,4.8 6.99130435,4.8 Z M6.99130435,7.41567391 C6.51828261,7.41567391 6.13565217,7.03304348 6.13565217,6.56002174 C6.13565217,6.087 6.51828261,5.70436957 6.99130435,5.70436957 C7.46432609,5.70436957 7.84695652,6.087 7.84695652,6.56002174 C7.84695652,7.03304348 7.46432609,7.41567391 6.99130435,7.41567391 Z" id="Shape"></path>
                        <path d="M10.6991087,8.50780435 C9.72521739,8.50780435 8.93908696,9.29386957 8.93908696,10.2678261 C8.93908696,11.2417174 9.72515217,12.0278478 10.6991087,12.0278478 C11.6730652,12.0278478 12.4591304,11.2417826 12.4591304,10.2678261 C12.4591304,9.29393478 11.6730652,8.50780435 10.6991087,8.50780435 Z M10.6991087,11.1234783 C10.226087,11.1234783 9.84345652,10.7408478 9.84345652,10.2678261 C9.84345652,9.79480435 10.226087,9.41217391 10.6991087,9.41217391 C11.1721304,9.41217391 11.5547609,9.79480435 11.5547609,10.2678261 C11.5547609,10.7408478 11.1721957,11.1234783 10.6991087,11.1234783 Z" id="Shape"></path>
                        <rect id="Rectangle-path" transform="translate(14.951333, 6.007811) rotate(-45.056720) translate(-14.951333, -6.007811) " x="10.2453211" y="5.55563054" width="9.41202305" height="1"></rect>
                        <rect id="Rectangle-path" transform="translate(8.850467, 8.411489) rotate(-45.105338) translate(-8.850467, -8.411489) " x="8.3982856" y="7.09671643" width="1" height="2.62954444"></rect>
                        <rect id="Rectangle-path" transform="translate(4.378493, 9.172756) rotate(-45.000000) translate(-4.378493, -9.172756) " x="1.98898345" y="8.72057573" width="4.77901939" height="1"></rect>
                        <rect id="Rectangle-path" x="0.0138913043" y="20.0626304" width="20.9391522" height="1"></rect>
                        <rect id="Rectangle-path" x="18.7547609" y="7.42956522" width="1" height="13.0852174"></rect>
                        <rect id="Rectangle-path" x="10.4695435" y="13.9756304" width="1" height="6.53915217"></rect>
                        <rect id="Rectangle-path" x="1.30780435" y="15.2835" width="1" height="5.23128261"></rect>
                        <rect id="Rectangle-path" x="6.53915217" y="11.3530435" width="1" height="9.16173913"></rect>
                    </g>
                </g>
            </g>
        </g>
    </g>
</svg>