<?xml version="1.0" encoding="UTF-8"?>
<svg width="21px" height="21px" viewBox="0 0 21 21" version="1.1" xmlns="http://www.w3.org/2000/svg" xmlns:xlink="http://www.w3.org/1999/xlink">
    <!-- Generator: Sketch 43.1 (39012) - http://www.bohemiancoding.com/sketch -->
    <title>001-fireworks</title>
    <desc>Created with Sketch.</desc>
    <defs></defs>
    <g id="Symbols" stroke="none" stroke-width="1" fill="none" fill-rule="evenodd">
        <g id="sidenav" transform="translate(-21.000000, -141.000000)" fill-rule="nonzero" fill="#339ECD">
            <g id="menu-::-item">
                <g transform="translate(0.000000, 126.000000)">
                    <g id="001-fireworks" transform="translate(21.000000, 15.000000)">
                        <path d="M13.7688363,6.29762573 C13.7255263,6.16429825 13.6169649,6.06240936 13.4812222,6.0275731 L11.7709708,5.58890643 L10.8253158,4.09794737 C10.7502398,3.9795614 10.6197778,3.90784211 10.479614,3.90784211 C10.3394503,3.90784211 10.2090292,3.9795614 10.1339532,4.09794737 L9.18821637,5.58890643 L7.47804678,6.0275731 C7.34226316,6.06240936 7.23374269,6.16429825 7.19043275,6.29762573 C7.14712281,6.43095322 7.17504094,6.5771345 7.26440351,6.68512281 L8.39017544,8.0452924 L8.27887135,9.80728655 C8.27002924,9.94720468 8.33335673,10.081883 8.44678947,10.1642865 C8.56022222,10.2466901 8.70787719,10.2653158 8.83821637,10.2136959 L10.479655,9.56335088 L12.1210936,10.2136959 C12.169807,10.2330175 12.2209357,10.2424737 12.2718596,10.2424737 C12.3570468,10.2424737 12.441538,10.2159064 12.5125205,10.1642865 C12.6259532,10.081883 12.6892807,9.94720468 12.6804386,9.80728655 L12.5691345,8.04525146 L13.6949064,6.68512281 C13.7842281,6.5771345 13.8121462,6.43095322 13.7688363,6.29762573 Z M11.8349532,7.6481345 C11.7685146,7.72836842 11.735193,7.83095322 11.7417836,7.93497076 L11.8226316,9.21478363 L10.6304211,8.7424269 C10.5819942,8.72322807 10.5307836,8.71364912 10.479614,8.71364912 C10.4284444,8.71364912 10.3772339,8.72322807 10.328807,8.7424269 L9.13663743,9.21478363 L9.21748538,7.9350117 C9.22407602,7.83099415 9.19075439,7.72845029 9.12431579,7.64817544 L8.30662573,6.66027485 L9.54873684,6.34167251 C9.64964327,6.31576023 9.73691813,6.25239181 9.79271345,6.16442105 L10.479614,5.08150877 L11.1664327,6.16442105 C11.2222281,6.25239181 11.3095029,6.31576023 11.4104094,6.34167251 L12.6526023,6.66027485 L11.8349532,7.6481345 Z" id="Shape"></path>
                        <path d="M10.479614,11.4079532 C10.2535263,11.4079532 10.0702573,11.5912632 10.0702573,11.8173099 L10.0702573,20.5498304 C10.0702573,20.7758772 10.2535263,20.9591871 10.479614,20.9591871 C10.7057018,20.9591871 10.8889708,20.7759181 10.8889708,20.5498304 L10.8889708,11.8173099 C10.8889708,11.5912222 10.7057018,11.4079532 10.479614,11.4079532 Z" id="Shape"></path>
                        <path d="M16.8920234,9.90049708 C16.7432222,9.73020468 16.4845906,9.71276608 16.3144211,9.86160819 C15.6066433,10.4800643 15.0292047,11.3259181 14.598152,12.3755906 C14.017152,13.7904503 13.722538,15.5445848 13.722538,17.5892398 C13.722538,17.8152865 13.905807,17.9985965 14.1318947,17.9985965 C14.3579825,17.9985965 14.5412515,17.8152865 14.5412515,17.5892398 C14.5412515,13.1596725 15.9897193,11.2325848 16.8531754,10.4780994 C17.023345,10.3293392 17.0407427,10.0707485 16.8920234,9.90049708 Z" id="Shape"></path>
                        <path d="M20.9043743,7.55979532 C20.8342924,7.43838012 20.7069415,7.36129825 20.5669006,7.35548538 L19.7201462,7.32019883 L19.1273977,6.71455556 C19.0293567,6.61438596 18.8868187,6.57119883 18.7497251,6.60050877 C18.6125906,6.62965497 18.4999357,6.72691813 18.4511404,6.85832164 L18.1559123,7.65267836 L17.3968012,8.02928655 C17.2712515,8.09154971 17.186269,8.21378363 17.171614,8.35321053 C17.1569591,8.49259649 17.2146784,8.62981287 17.3245497,8.71688304 L17.9888129,9.24307018 L18.1123977,10.0814737 C18.1328655,10.2201637 18.2228012,10.3387544 18.3508889,10.3957778 C18.4041053,10.4194795 18.4608421,10.4311462 18.5173333,10.4311462 C18.5967485,10.4311462 18.6757953,10.4080585 18.7439942,10.3627018 L19.4497251,9.89353801 L20.2852632,10.0350526 C20.3094152,10.0391871 20.3340585,10.0413158 20.3575965,10.0408246 C20.5822515,10.0391053 20.7638012,9.85649123 20.7638012,9.63146784 C20.7638012,9.58373684 20.755655,9.53797076 20.7406316,9.49535673 L20.5197836,8.7051345 L20.9126023,7.95425146 C20.9775263,7.83005263 20.9744561,7.68121053 20.9043743,7.55979532 Z M19.6876023,8.76923977 L19.7856433,9.12001754 L19.4265146,9.05922807 C19.323807,9.04174854 19.2182749,9.06426316 19.1315322,9.12190058 L18.8281988,9.32354971 L18.7751053,8.96323392 C18.7599181,8.86011696 18.7059649,8.76674269 18.6242982,8.70202339 L18.3387719,8.4758538 L18.6650292,8.31399415 C18.7583626,8.26769591 18.8305322,8.18754386 18.8668012,8.08987135 L18.9937018,7.7484269 L19.2484854,8.00873684 C19.3213509,8.08315789 19.419883,8.12708187 19.5239825,8.13138012 L19.8879415,8.14656725 L19.7191228,8.46926316 C19.6708187,8.56165497 19.6595205,8.66890643 19.6876023,8.76923977 Z" id="Shape"></path>
                        <path d="M4.64484795,9.86156725 C4.47459649,9.71272515 4.21596491,9.73016374 4.06724561,9.90045614 C3.91848538,10.0707076 3.93592398,10.3293392 4.1061345,10.4780585 C4.96954971,11.2325439 6.41805848,13.1596316 6.41805848,17.5891988 C6.41805848,17.8152456 6.60132749,17.9985556 6.8274152,17.9985556 C7.05350292,17.9985556 7.23677193,17.8152456 7.23677193,17.5891988 C7.23677193,15.5445439 6.94215789,13.7904094 6.36115789,12.3755497 C5.93006433,11.3258772 5.35262573,10.4800643 4.64484795,9.86156725 Z" id="Shape"></path>
                        <path d="M3.78765497,8.35321053 C3.773,8.21378363 3.68801754,8.09154971 3.56246784,8.02928655 L2.80335673,7.65267836 L2.50812865,6.85832164 C2.4592924,6.72691813 2.34663743,6.62965497 2.20950292,6.60050877 C2.07228655,6.57115789 1.92991228,6.61438596 1.83183041,6.71455556 L1.23908187,7.32019883 L0.392327485,7.35548538 C0.25228655,7.36133918 0.124935673,7.43838012 0.0548538012,7.55979532 C-0.0152280702,7.68121053 -0.0183391813,7.83005263 0.0466666667,7.95425146 L0.43948538,8.7051345 L0.211391813,9.52126901 C0.173649123,9.65627485 0.207625731,9.80118713 0.301409357,9.90536842 C0.395233918,10.0095497 0.535888889,10.0586316 0.674005848,10.0350526 L1.50954386,9.89353801 L2.21527485,10.3627018 C2.28351462,10.4080175 2.36247953,10.4311462 2.44193567,10.4311462 C2.4984269,10.4311462 2.55516374,10.4194795 2.60838012,10.3957778 C2.7364269,10.3387544 2.82640351,10.2201637 2.84687135,10.0814737 L2.97045614,9.24307018 L3.6347193,8.71688304 C3.74463158,8.62981287 3.80230994,8.49259649 3.78765497,8.35321053 Z M2.33497076,8.70202339 C2.25330409,8.76674269 2.19935088,8.86011696 2.18416374,8.96323392 L2.13107018,9.32354971 L1.82773684,9.12190058 C1.76015205,9.07699415 1.68122807,9.05345614 1.60111696,9.05345614 C1.57835673,9.05345614 1.55547368,9.05533918 1.53275439,9.05922807 L1.17362573,9.12001754 L1.27166667,8.76923977 C1.2997076,8.66890643 1.28845029,8.56165497 1.2401462,8.46930409 L1.07132749,8.14660819 L1.43528655,8.13142105 C1.53938596,8.12712281 1.63791813,8.08319883 1.71078363,8.00877778 L1.96556725,7.74846784 L2.09246784,8.08991228 C2.12873684,8.1875848 2.20090643,8.26773684 2.29423977,8.31403509 L2.62049708,8.47589474 L2.33497076,8.70202339 Z" id="Shape"></path>
                        <path d="M5.66340936,2.70306433 C6.28239766,3.05122222 6.9130117,4.05480117 7.04052632,4.89455556 C7.07130994,5.09726901 7.24581871,5.24250877 7.44472515,5.24250877 C7.46515205,5.24250877 7.4858655,5.24099415 7.50670175,5.23784211 C7.73021053,5.20390643 7.88388304,4.99517544 7.84994737,4.77166667 C7.68440351,3.68150877 6.9002807,2.45945614 6.06478363,1.98947368 C5.8677193,1.87861988 5.6181345,1.94857895 5.5072807,2.1455614 C5.39650877,2.34266667 5.46638596,2.59221053 5.66340936,2.70306433 Z" id="Shape"></path>
                        <path d="M3.83309357,2.45618129 C4.51025146,2.45618129 5.06120468,1.90526901 5.06120468,1.22811111 C5.06120468,0.550953216 4.51025146,4.09356724e-05 3.83309357,4.09356724e-05 C3.15593567,4.09356724e-05 2.60502339,0.550953216 2.60502339,1.22811111 C2.60502339,1.90526901 3.15593567,2.45618129 3.83309357,2.45618129 Z M3.83309357,0.818754386 C4.0588538,0.818754386 4.24249123,1.00239181 4.24249123,1.22811111 C4.24249123,1.45383041 4.0588538,1.63746784 3.83309357,1.63746784 C3.60737427,1.63746784 3.42373684,1.45383041 3.42373684,1.22811111 C3.42373684,1.00239181 3.60737427,0.818754386 3.83309357,0.818754386 Z" id="Shape"></path>
                        <path d="M13.4525263,5.23784211 C13.4733626,5.24099415 13.494076,5.24250877 13.5145029,5.24250877 C13.7134503,5.24250877 13.8879591,5.09726901 13.9187018,4.89455556 C14.0462164,4.05480117 14.6768713,3.05122222 15.2958187,2.70306433 C15.4928421,2.59221053 15.5627193,2.34262573 15.4519064,2.14560234 C15.3410936,1.94857895 15.0915088,1.87861988 14.8944035,1.98951462 C14.0589064,2.45945614 13.2747836,3.68154971 13.1092398,4.7717076 C13.0753041,4.99521637 13.2290175,5.20390643 13.4525263,5.23784211 Z" id="Shape"></path>
                        <path d="M17.1261345,2.45618129 C17.8032924,2.45618129 18.3542047,1.90526901 18.3542047,1.22811111 C18.3542047,0.550953216 17.8032924,4.09356724e-05 17.1261345,4.09356724e-05 C16.4489766,4.09356724e-05 15.8980643,0.550953216 15.8980643,1.22811111 C15.8980643,1.90526901 16.4489766,2.45618129 17.1261345,2.45618129 Z M17.1261345,0.818754386 C17.3518538,0.818754386 17.5354912,1.00239181 17.5354912,1.22811111 C17.5354912,1.45383041 17.3518538,1.63746784 17.1261345,1.63746784 C16.9004152,1.63746784 16.7167778,1.45383041 16.7167778,1.22811111 C16.7167778,1.00239181 16.9004152,0.818754386 17.1261345,0.818754386 Z" id="Shape"></path>
                        <path d="M3.44559649,14.1556784 C3.22012281,14.1556784 3.03623977,14.3395614 3.03623977,14.5650351 C3.03623977,14.7905088 3.22012281,14.9743918 3.44559649,14.9743918 C3.67107018,14.9743918 3.85495322,14.7905088 3.85495322,14.5650351 C3.85495322,14.3395614 3.67107018,14.1556784 3.44559649,14.1556784 Z" id="Shape"></path>
                        <path d="M4.75553801,6.02994737 C4.75553801,6.25546199 4.93942105,6.43930409 5.16489474,6.43930409 C5.39036842,6.43930409 5.5742924,6.25546199 5.5742924,6.02994737 C5.5742924,5.80447368 5.39036842,5.62059064 5.16489474,5.62059064 C4.93942105,5.62059064 4.75553801,5.80447368 4.75553801,6.02994737 Z" id="Shape"></path>
                        <path d="M10.4455965,2.50947953 C10.6710702,2.50947953 10.8549532,2.32563743 10.8549532,2.10012281 C10.8549532,1.87464912 10.6710702,1.69076608 10.4455965,1.69076608 C10.2201228,1.69076608 10.0362398,1.87464912 10.0362398,2.10012281 C10.0362398,2.32563743 10.2201228,2.50947953 10.4455965,2.50947953 Z" id="Shape"></path>
                        <path d="M16.1765906,5.90714035 C16.1765906,6.13261404 16.3604737,6.31649708 16.5859474,6.31649708 C16.8114211,6.31649708 16.995345,6.13261404 16.995345,5.90714035 C16.995345,5.68166667 16.8114211,5.49778363 16.5859474,5.49778363 C16.3604737,5.49778363 16.1765906,5.68166667 16.1765906,5.90714035 Z" id="Shape"></path>
                        <path d="M17.0772164,14.1556784 C16.8517018,14.1556784 16.6678596,14.3395614 16.6678596,14.5650351 C16.6678596,14.7905088 16.8517018,14.9743918 17.0772164,14.9743918 C17.3026901,14.9743918 17.4865731,14.7905088 17.4865731,14.5650351 C17.4865731,14.3395614 17.3026901,14.1556784 17.0772164,14.1556784 Z" id="Shape"></path>
                        <path d="M6.82737427,18.3656667 C6.60190058,18.3656667 6.41801754,18.5495906 6.41801754,18.7750234 C6.41801754,19.000538 6.60190058,19.1844211 6.82737427,19.1844211 C7.05284795,19.1844211 7.23673099,19.000538 7.23673099,18.7750234 C7.23673099,18.5495906 7.05284795,18.3656667 6.82737427,18.3656667 Z" id="Shape"></path>
                        <path d="M14.1318947,18.3656667 C13.9063801,18.3656667 13.722538,18.5495906 13.722538,18.7750234 C13.722538,19.000538 13.9063801,19.1844211 14.1318947,19.1844211 C14.3573684,19.1844211 14.5412515,19.000538 14.5412515,18.7750234 C14.5412515,18.5495906 14.3573684,18.3656667 14.1318947,18.3656667 Z" id="Shape"></path>
                        <path d="M8.20817544,11.7762924 C7.98270175,11.7762924 7.79881871,11.9601754 7.79881871,12.1856491 C7.79881871,12.4111228 7.98270175,12.5950058 8.20817544,12.5950058 C8.43364912,12.5950058 8.61753216,12.4111228 8.61753216,12.1856491 C8.61753216,11.9601754 8.43364912,11.7762924 8.20817544,11.7762924 Z" id="Shape"></path>
                        <path d="M12.7827368,11.5920819 C12.5572632,11.5920819 12.3733801,11.7759649 12.3733801,12.0014386 C12.3733801,12.2269123 12.5572632,12.4107953 12.7827368,12.4107953 C13.0082105,12.4107953 13.1920936,12.2269123 13.1920936,12.0014386 C13.1920936,11.7759649 13.0082105,11.5920819 12.7827368,11.5920819 Z" id="Shape"></path>
                    </g>
                </g>
            </g>
        </g>
    </g>
</svg>