<?xml version="1.0" encoding="UTF-8"?>
<svg width="21px" height="21px" viewBox="0 0 21 21" version="1.1" xmlns="http://www.w3.org/2000/svg" xmlns:xlink="http://www.w3.org/1999/xlink">
    <!-- Generator: Sketch 43.1 (39012) - http://www.bohemiancoding.com/sketch -->
    <title>005-factory</title>
    <desc>Created with Sketch.</desc>
    <defs></defs>
    <g id="Symbols" stroke="none" stroke-width="1" fill="none" fill-rule="evenodd">
        <g id="sidenav" transform="translate(-21.000000, -91.000000)" fill-rule="nonzero" fill="#339ECD">
            <g id="menu-::-item">
                <g transform="translate(0.000000, 76.000000)">
                    <g id="005-factory" transform="translate(21.000000, 15.000000)">
                        <path d="M20.1386309,19.2766465 L19.7324121,19.2766465 L19.7324121,18.0870703 C19.7324121,17.9171426 19.5946816,17.7794531 19.4247949,17.7794531 C19.2548672,17.7794531 19.1171777,17.9171426 19.1171777,18.0870703 L19.1171777,19.2766465 L17.8226426,19.2766465 L17.8226426,15.4515293 C17.8837148,15.4650645 17.9464687,15.4726934 18.0105352,15.4726934 C18.7709648,15.4726934 19.1636895,14.5465195 18.6196172,14.0022832 L16.2154453,11.5981523 C15.4160098,10.7987168 14.1181113,10.7986348 13.3185937,11.5981523 L10.9143809,14.0022832 C10.318793,14.5979941 10.8556875,15.6412266 11.7113145,15.4515293 L11.7113145,19.2766055 L2.13748828,19.2766055 L2.13748828,10.4289199 L3.26390039,10.4289199 C3.43382812,10.4289199 3.57151758,10.2912305 3.57151758,10.1213027 C3.57151758,9.951375 3.43382812,9.81368555 3.26390039,9.81368555 L2.13748828,9.81368555 L2.13748828,9.32141602 L19.1171777,9.32141602 L19.1171777,9.81368555 L4.69944727,9.81368555 C4.52951953,9.81368555 4.39183008,9.951375 4.39183008,10.1213027 C4.39183008,10.2912305 4.52951953,10.4289199 4.69944727,10.4289199 L19.1171777,10.4289199 L19.1171777,16.6515234 C19.1171777,16.8214512 19.2548672,16.9591406 19.4247949,16.9591406 C19.5946816,16.9591406 19.7324121,16.8214512 19.7324121,16.6515234 L19.7324121,9.32141602 L20.0455664,9.32141602 C20.2154941,9.32141602 20.3531836,9.18372656 20.3531836,9.01379883 C20.3531836,8.84387109 20.2154941,8.70618164 20.0455664,8.70618164 L9.50200781,8.70618164 L9.50200781,7.26800977 C9.50200781,7.09808203 9.36431836,6.96039258 9.19439062,6.96039258 C9.02446289,6.96039258 8.88677344,7.09808203 8.88677344,7.26800977 L8.88677344,7.59871875 L7.3599668,7.59871875 L7.3599668,5.41607227 L8.88677344,5.41607227 L8.88677344,5.83242188 C8.88677344,6.00234961 9.02446289,6.14003906 9.19439062,6.14003906 C9.36431836,6.14003906 9.50200781,6.00234961 9.50200781,5.83242188 L9.50200781,5.35155469 C9.84949219,5.20886133 10.0987852,4.83434766 10.0243418,4.40819531 C9.95305664,3.99557813 9.59453906,3.69329297 9.17601562,3.69329297 L7.07068359,3.69329297 C6.68070703,3.69329297 6.33855469,3.95673633 6.23929687,4.33157813 C6.23732812,4.33883789 6.23544141,4.34609766 6.23302148,4.35610547 C6.22891992,4.37341406 6.22539258,4.39080469 6.22272656,4.40651367 C6.2204707,4.4191875 6.21854297,4.43198438 6.21661523,4.44679102 C6.21505664,4.45925977 6.21382617,4.4716875 6.21271875,4.48514063 C6.21165234,4.49449219 6.21079102,4.50388477 6.21029883,4.51381055 C6.21001172,4.52041406 6.20988867,4.52697656 6.20992969,4.53366211 C6.20956055,4.54063477 6.20931445,4.54760742 6.20931445,4.55466211 C6.20931445,4.91428711 6.43100391,5.22272461 6.74473242,5.35155469 L6.74473242,8.70618164 L4.99836914,8.70618164 L4.99836914,5.35155469 C5.31209766,5.22276563 5.53378711,4.91428711 5.53378711,4.55466211 C5.53378711,4.54777148 5.53358203,4.54100391 5.53317187,4.53399023 C5.53325391,4.52656641 5.53313086,4.5194707 5.53276172,4.51340039 C5.53235156,4.50413086 5.53153125,4.49506641 5.53042383,4.48538672 C5.52943945,4.47238477 5.52808594,4.45930078 5.52628125,4.44506836 C5.52464062,4.43218945 5.52263086,4.41939258 5.52066211,4.40819531 C5.51770898,4.39092773 5.51422266,4.37382422 5.50958789,4.3540957 C5.5077832,4.34671289 5.50589648,4.33949414 5.50437891,4.33391602 C5.40442383,3.95677734 5.0623125,3.69333398 4.67233594,3.69333398 L2.56708594,3.69333398 C2.08962305,3.69333398 1.7057168,4.08310547 1.7057168,4.55470313 C1.7057168,4.91432813 1.92740625,5.22276563 2.24113477,5.3515957 L2.24113477,8.70618164 L1.26028711,8.70618164 C1.09035937,8.70618164 0.952669922,8.84387109 0.952669922,9.01379883 C0.952669922,9.18372656 1.09035937,9.32141602 1.26028711,9.32141602 L1.52225391,9.32141602 L1.52225391,19.2766465 L0.861328125,19.2766465 C0.471392578,19.2766465 0.129199219,19.5400898 0.0292441406,19.9173105 C-0.116033203,20.4654844 0.298470703,20.9994258 0.861328125,20.9994258 L20.1386309,20.9994258 C20.6135918,20.9994258 21,20.6130176 21,20.1380566 C21,19.6677305 20.6174883,19.2766465 20.1386309,19.2766465 Z M8.88677344,8.21395313 L8.88677344,8.70618164 L7.3599668,8.70618164 L7.3599668,8.21395313 L8.88677344,8.21395313 Z M6.82532812,4.54252148 C6.82590234,4.53649219 6.82627148,4.52964258 6.82688672,4.52480273 C6.8281582,4.51532813 6.83008594,4.50491016 6.83115234,4.50027539 C6.83390039,4.49617383 6.87446484,4.30852734 7.07076562,4.30852734 L9.17609766,4.30852734 C9.28729102,4.30852734 9.38486719,4.38375 9.41390625,4.49317969 C9.45225586,4.67487891 9.31850391,4.80079688 9.17609766,4.80079688 L7.07076562,4.80079688 C6.93725977,4.80079688 6.82824023,4.69395117 6.82471289,4.56122461 C6.82495898,4.55617969 6.82532812,4.54793555 6.82532812,4.54252148 Z M4.38317578,8.70618164 L2.85641016,8.70618164 L2.85641016,8.21395313 L4.38317578,8.21395313 L4.38317578,8.70618164 L4.38317578,8.70618164 Z M4.38317578,7.59871875 L2.85641016,7.59871875 L2.85641016,5.41607227 L4.38317578,5.41607227 L4.38317578,7.59871875 L4.38317578,7.59871875 Z M2.32808789,4.49789648 C2.33087695,4.49379492 2.3722207,4.30856836 2.56708594,4.30856836 L4.67237695,4.30856836 C4.78357031,4.30856836 4.8811875,4.38379102 4.91018555,4.4932207 C4.91543555,4.51582031 4.91703516,4.52517188 4.9179375,4.54896094 C4.92084961,4.69292578 4.80555469,4.80083789 4.67237695,4.80083789 L2.56708594,4.80083789 C2.43345703,4.80083789 2.32435547,4.69378711 2.3210332,4.56089648 C2.32205859,4.54120898 2.32123828,4.52640234 2.32808789,4.49789648 Z M11.6974102,14.7854355 C11.5431504,14.9398184 11.2773281,14.8298145 11.2773281,14.6114063 C11.2773281,14.42175 11.313709,14.5087441 13.7536055,12.0332461 C14.3126074,11.4741621 15.2213086,11.4741621 15.7803105,12.0332461 C18.2472363,14.5361426 18.2565879,14.4193301 18.2565879,14.6114063 C18.2565879,14.8293633 17.9911348,14.9401465 17.8365059,14.7853945 C17.5733906,14.5223203 15.69225,12.6411797 15.432334,12.3812637 C15.1285723,12.077543 14.6744473,12.0284883 14.3239277,12.2159707 C14.1501855,12.3089121 14.2868086,12.1959961 11.8009746,14.6818711 L11.6974102,14.7854355 Z M16.0654102,14.8467129 L13.482123,14.8467129 C13.1812324,14.8467129 12.9364102,15.0914941 12.9364102,15.3923848 L12.9364102,16.261834 L12.9364102,19.2766465 L12.3265078,19.2766465 L12.3265078,15.0264434 C14.6532422,12.747082 14.5261348,12.7209141 14.7669375,12.7209141 C15.0077402,12.7209141 14.881043,12.7474922 17.2073672,15.0264023 L17.2073672,19.2766875 L16.5974238,19.2766875 L16.5974238,18.4768418 L16.5974238,15.3787676 C16.5974238,15.0853828 16.3587539,14.8467129 16.0654102,14.8467129 Z M13.5516855,18.1691836 L13.5516855,17.6769141 L15.9821895,17.6769141 L15.9821895,18.1691836 L13.5516855,18.1691836 Z M15.9821895,18.784418 L15.9821895,19.2766465 L13.5516855,19.2766465 L13.5516855,18.784418 L15.9821895,18.784418 Z M13.5516855,17.0616797 L13.5516855,16.5694512 L15.9821895,16.5694512 L15.9821895,17.0616797 L13.5516855,17.0616797 Z M13.5516855,15.9542168 L13.5516855,15.4619473 L15.9821895,15.4619473 L15.9821895,15.9542168 L13.5516855,15.9542168 Z M20.1386309,20.3841504 L0.861328125,20.3841504 C0.704853516,20.3841504 0.585498047,20.2381348 0.621878906,20.0830547 C0.624626953,20.0789531 0.6654375,19.8918809 0.861328125,19.8918809 L20.1386309,19.8918809 C20.257084,19.8918809 20.3760293,19.9760449 20.3846836,20.144209 C20.3814023,20.2770996 20.2723008,20.3841504 20.1386309,20.3841504 Z" id="Shape"></path>
                        <path d="M3.98167383,14.5185879 L3.7017832,14.5185879 C3.53185547,14.5185879 3.39416602,14.6562773 3.39416602,14.8262051 C3.39416602,14.9961328 3.53185547,15.1338223 3.7017832,15.1338223 L3.98167383,15.1338223 C4.15160156,15.1338223 4.28929102,14.9961328 4.28929102,14.8262051 C4.28929102,14.6563184 4.15160156,14.5185879 3.98167383,14.5185879 Z" id="Shape"></path>
                        <path d="M3.98167383,13.411043 L3.7017832,13.411043 C3.53185547,13.411043 3.39416602,13.5487324 3.39416602,13.7186602 C3.39416602,13.8885879 3.53185547,14.0262773 3.7017832,14.0262773 L3.98167383,14.0262773 C4.15160156,14.0262773 4.28929102,13.8885879 4.28929102,13.7186602 C4.28929102,13.5487324 4.15160156,13.411043 3.98167383,13.411043 Z" id="Shape"></path>
                        <path d="M3.98167383,12.3035801 L3.7017832,12.3035801 C3.53185547,12.3035801 3.39416602,12.4413105 3.39416602,12.6111973 C3.39416602,12.781125 3.53185547,12.9188145 3.7017832,12.9188145 L3.98167383,12.9188145 C4.15160156,12.9188145 4.28929102,12.781125 4.28929102,12.6111973 C4.28929102,12.4413105 4.15160156,12.3035801 3.98167383,12.3035801 Z" id="Shape"></path>
                        <path d="M3.98167383,15.6260918 L3.7017832,15.6260918 C3.53185547,15.6260918 3.39416602,15.7637812 3.39416602,15.933709 C3.39416602,16.1036367 3.53185547,16.2413262 3.7017832,16.2413262 L3.98167383,16.2413262 C4.15160156,16.2413262 4.28929102,16.1036367 4.28929102,15.933709 C4.28929102,15.7638223 4.15160156,15.6260918 3.98167383,15.6260918 Z" id="Shape"></path>
                        <path d="M3.98167383,16.7335547 L3.7017832,16.7335547 C3.53185547,16.7335547 3.39416602,16.8712441 3.39416602,17.0411719 C3.39416602,17.2110996 3.53185547,17.3487891 3.7017832,17.3487891 L3.98167383,17.3487891 C4.15160156,17.3487891 4.28929102,17.2110996 4.28929102,17.0411719 C4.28929102,16.8712852 4.15160156,16.7335547 3.98167383,16.7335547 Z" id="Shape"></path>
                        <path d="M5.79321094,14.5185879 L5.51336133,14.5185879 C5.34343359,14.5185879 5.20574414,14.6562773 5.20574414,14.8262051 C5.20574414,14.9961328 5.34343359,15.1338223 5.51336133,15.1338223 L5.79321094,15.1338223 C5.96313867,15.1338223 6.10082813,14.9961328 6.10082813,14.8262051 C6.10082813,14.6563184 5.96313867,14.5185879 5.79321094,14.5185879 Z" id="Shape"></path>
                        <path d="M5.79321094,13.411043 L5.51336133,13.411043 C5.34343359,13.411043 5.20574414,13.5487324 5.20574414,13.7186602 C5.20574414,13.8885879 5.34343359,14.0262773 5.51336133,14.0262773 L5.79321094,14.0262773 C5.96313867,14.0262773 6.10082813,13.8885879 6.10082813,13.7186602 C6.10082813,13.5487324 5.96313867,13.411043 5.79321094,13.411043 Z" id="Shape"></path>
                        <path d="M5.79321094,12.3035801 L5.51336133,12.3035801 C5.34343359,12.3035801 5.20574414,12.4413105 5.20574414,12.6111973 C5.20574414,12.781125 5.34343359,12.9188145 5.51336133,12.9188145 L5.79321094,12.9188145 C5.96313867,12.9188145 6.10082813,12.781125 6.10082813,12.6111973 C6.10082813,12.4413105 5.96313867,12.3035801 5.79321094,12.3035801 Z" id="Shape"></path>
                        <path d="M5.79321094,15.6260918 L5.51336133,15.6260918 C5.34343359,15.6260918 5.20574414,15.7637812 5.20574414,15.933709 C5.20574414,16.1036367 5.34343359,16.2413262 5.51336133,16.2413262 L5.79321094,16.2413262 C5.96313867,16.2413262 6.10082813,16.1036367 6.10082813,15.933709 C6.10082813,15.7638223 5.96313867,15.6260918 5.79321094,15.6260918 Z" id="Shape"></path>
                        <path d="M5.79321094,16.7335547 L5.51336133,16.7335547 C5.34343359,16.7335547 5.20574414,16.8712441 5.20574414,17.0411719 C5.20574414,17.2110996 5.34343359,17.3487891 5.51336133,17.3487891 L5.79321094,17.3487891 C5.96313867,17.3487891 6.10082813,17.2110996 6.10082813,17.0411719 C6.10082813,16.8712852 5.96313867,16.7335547 5.79321094,16.7335547 Z" id="Shape"></path>
                        <path d="M7.60478906,14.5185879 L7.32493945,14.5185879 C7.15501172,14.5185879 7.01732227,14.6562773 7.01732227,14.8262051 C7.01732227,14.9961328 7.15501172,15.1338223 7.32493945,15.1338223 L7.60478906,15.1338223 C7.7747168,15.1338223 7.91240625,14.9961328 7.91240625,14.8262051 C7.91240625,14.6563184 7.7747168,14.5185879 7.60478906,14.5185879 Z" id="Shape"></path>
                        <path d="M7.60478906,13.411043 L7.32493945,13.411043 C7.15501172,13.411043 7.01732227,13.5487324 7.01732227,13.7186602 C7.01732227,13.8885879 7.15501172,14.0262773 7.32493945,14.0262773 L7.60478906,14.0262773 C7.7747168,14.0262773 7.91240625,13.8885879 7.91240625,13.7186602 C7.91240625,13.5487324 7.7747168,13.411043 7.60478906,13.411043 Z" id="Shape"></path>
                        <path d="M7.60478906,12.3035801 L7.32493945,12.3035801 C7.15501172,12.3035801 7.01732227,12.4413105 7.01732227,12.6111973 C7.01732227,12.781125 7.15501172,12.9188145 7.32493945,12.9188145 L7.60478906,12.9188145 C7.7747168,12.9188145 7.91240625,12.781125 7.91240625,12.6111973 C7.91240625,12.4413105 7.7747168,12.3035801 7.60478906,12.3035801 Z" id="Shape"></path>
                        <path d="M7.60478906,15.6260918 L7.32493945,15.6260918 C7.15501172,15.6260918 7.01732227,15.7637812 7.01732227,15.933709 C7.01732227,16.1036367 7.15501172,16.2413262 7.32493945,16.2413262 L7.60478906,16.2413262 C7.7747168,16.2413262 7.91240625,16.1036367 7.91240625,15.933709 C7.91240625,15.7638223 7.7747168,15.6260918 7.60478906,15.6260918 Z" id="Shape"></path>
                        <path d="M7.60478906,16.7335547 L7.32493945,16.7335547 C7.15501172,16.7335547 7.01732227,16.8712441 7.01732227,17.0411719 C7.01732227,17.2110996 7.15501172,17.3487891 7.32493945,17.3487891 L7.60478906,17.3487891 C7.7747168,17.3487891 7.91240625,17.2110996 7.91240625,17.0411719 C7.91240625,16.8712852 7.7747168,16.7335547 7.60478906,16.7335547 Z" id="Shape"></path>
                        <path d="M9.41632617,14.5185879 L9.13647656,14.5185879 C8.96654883,14.5185879 8.82885938,14.6562773 8.82885938,14.8262051 C8.82885938,14.9961328 8.96654883,15.1338223 9.13647656,15.1338223 L9.41632617,15.1338223 C9.58625391,15.1338223 9.72394336,14.9961328 9.72394336,14.8262051 C9.72394336,14.6563184 9.58625391,14.5185879 9.41632617,14.5185879 Z" id="Shape"></path>
                        <path d="M9.41632617,13.411043 L9.13647656,13.411043 C8.96654883,13.411043 8.82885938,13.5487324 8.82885938,13.7186602 C8.82885938,13.8885879 8.96654883,14.0262773 9.13647656,14.0262773 L9.41632617,14.0262773 C9.58625391,14.0262773 9.72394336,13.8885879 9.72394336,13.7186602 C9.72394336,13.5487324 9.58625391,13.411043 9.41632617,13.411043 Z" id="Shape"></path>
                        <path d="M9.41632617,12.3035801 L9.13647656,12.3035801 C8.96654883,12.3035801 8.82885938,12.4413105 8.82885938,12.6111973 C8.82885938,12.781125 8.96654883,12.9188145 9.13647656,12.9188145 L9.41632617,12.9188145 C9.58625391,12.9188145 9.72394336,12.781125 9.72394336,12.6111973 C9.72394336,12.4413105 9.58625391,12.3035801 9.41632617,12.3035801 Z" id="Shape"></path>
                        <path d="M9.41632617,15.6260918 L9.13647656,15.6260918 C8.96654883,15.6260918 8.82885938,15.7637812 8.82885938,15.933709 C8.82885938,16.1036367 8.96654883,16.2413262 9.13647656,16.2413262 L9.41632617,16.2413262 C9.58625391,16.2413262 9.72394336,16.1036367 9.72394336,15.933709 C9.72394336,15.7638223 9.58625391,15.6260918 9.41632617,15.6260918 Z" id="Shape"></path>
                        <path d="M9.41632617,16.7335547 L9.13647656,16.7335547 C8.96654883,16.7335547 8.82885938,16.8712441 8.82885938,17.0411719 C8.82885938,17.2110996 8.96654883,17.3487891 9.13647656,17.3487891 L9.41632617,17.3487891 C9.58625391,17.3487891 9.72394336,17.2110996 9.72394336,17.0411719 C9.72394336,16.8712852 9.58625391,16.7335547 9.41632617,16.7335547 Z" id="Shape"></path>
                        <path d="M9.97549219,1.91370703 C9.86856445,1.51023633 9.5025,1.22841797 9.08537109,1.22841797 L7.28445703,1.22841797 C7.09767187,1.22841797 6.94972852,1.05988477 6.98319727,0.870064453 C7.00850391,0.722900391 7.13634961,0.615849609 7.28445703,0.615849609 L9.08537109,0.615849609 C9.25529883,0.615849609 9.39298828,0.478160156 9.39298828,0.308232422 C9.39298828,0.138304687 9.25529883,0.000615234375 9.08537109,0.000615234375 L7.28445703,0.000615234375 C6.84070898,0.000615234375 6.45430078,0.319388672 6.37702734,0.764900391 C6.27781055,1.33739648 6.72241992,1.84365234 7.28445703,1.84365234 L8.21276367,1.84365234 L8.23966992,1.84365234 L9.08537109,1.84365234 C9.22375781,1.84365234 9.34524609,1.93729102 9.38154492,2.07403711 C9.42842578,2.29646484 9.26551172,2.4562207 9.08537109,2.4562207 L8.58366797,2.4562207 C7.86363867,2.4562207 7.65060352,3.45954492 8.19557812,3.45954492 C8.36550586,3.45954492 8.50319531,3.32185547 8.50319531,3.15192773 C8.50319531,3.10754883 8.53928906,3.07145508 8.58366797,3.07145508 L9.08537109,3.07145508 C9.6796875,3.07145508 10.1374219,2.50580859 9.97549219,1.91370703 Z" id="Shape"></path>
                        <path d="M5.41603125,1.93585547 C5.31365625,1.51298437 4.93848633,1.22841797 4.52020898,1.22841797 L2.71933594,1.22841797 C2.52401953,1.22841797 2.37603516,1.04634961 2.42143945,0.852919922 C2.4241875,0.848818359 2.47594922,0.615849609 2.71933594,0.615849609 L4.52020898,0.615849609 C4.69013672,0.615849609 4.82782617,0.478160156 4.82782617,0.308232422 C4.82782617,0.138304687 4.69013672,0.000615234375 4.52020898,0.000615234375 L2.71929492,0.000615234375 C2.20959375,0.000615234375 1.79771484,0.415898437 1.79771484,0.922154297 C1.79771484,1.43025586 2.21111133,1.84365234 2.71929492,1.84365234 L4.52016797,1.84365234 C4.6585957,1.84365234 4.78008398,1.93729102 4.81576758,2.0719043 C4.86560156,2.28284766 4.70961914,2.4562207 4.52016797,2.4562207 L4.01854688,2.4562207 C3.29851758,2.4562207 3.08548242,3.45954492 3.63045703,3.45954492 C3.80038477,3.45954492 3.93807422,3.32185547 3.93807422,3.15192773 C3.93807422,3.10754883 3.97416797,3.07145508 4.01854688,3.07145508 L4.52016797,3.07145508 C5.0806875,3.07145508 5.56221094,2.55125391 5.41603125,1.93585547 Z" id="Shape"></path>
                    </g>
                </g>
            </g>
        </g>
    </g>
</svg>