<?xml version="1.0" encoding="UTF-8"?>
<svg width="21px" height="21px" viewBox="0 0 21 21" version="1.1" xmlns="http://www.w3.org/2000/svg" xmlns:xlink="http://www.w3.org/1999/xlink">
    <!-- Generator: Sketch 43.1 (39012) - http://www.bohemiancoding.com/sketch -->
    <title>help</title>
    <desc>Created with Sketch.</desc>
    <defs></defs>
    <g id="Symbols" stroke="none" stroke-width="1" fill="none" fill-rule="evenodd">
        <g id="sysnav" transform="translate(-1034.000000, -12.000000)" fill-rule="nonzero" fill="#FFFFFF">
            <g id="help">
                <g transform="translate(1034.000000, 12.000000)">
                    <path d="M20.6104138,13.3313793 C20.6107759,13.329569 20.6100517,13.3273966 20.6107759,13.3255862 C20.8624138,12.4258448 21,11.4790345 21,10.5 C21,9.52096552 20.8624138,8.57415517 20.6107759,7.67441379 C20.6104138,7.67260345 20.6111379,7.67043103 20.6104138,7.66862069 C20.6096897,7.66572414 20.6075172,7.66391379 20.6067931,7.66137931 C20.5122931,7.32574138 20.4018621,6.99734483 20.2758621,6.67618966 L20.2758621,6.55706897 C20.2758621,6.42636207 20.2030862,6.31737931 20.0995345,6.25365517 C19.9720862,5.96689655 19.8334138,5.68701724 19.6817069,5.41437931 C19.745069,5.46832759 19.824,5.50417241 19.9137931,5.50417241 C20.1136552,5.50417241 20.2758621,5.34232759 20.2758621,5.14210345 L20.2758621,4.78836207 C20.2758621,4.58813793 20.1136552,4.4262931 19.9137931,4.4262931 C19.713931,4.4262931 19.5517241,4.58813793 19.5517241,4.78836207 L19.5517241,5.14210345 C19.5517241,5.16382759 19.5604138,5.1822931 19.5640345,5.20293103 C19.5383276,5.15912069 19.5115345,5.11639655 19.4851034,5.07294828 C19.4803966,5.06498276 19.4756897,5.05701724 19.4706207,5.04941379 C19.4456379,5.0085 19.4217414,4.96686207 19.3960345,4.92631034 C19.3924138,4.92051724 19.3862586,4.91762069 19.3826379,4.91218966 C19.146931,4.53853448 18.8898621,4.17972414 18.6103448,3.83974138 C18.6078103,3.83612069 18.6070862,3.83213793 18.6045517,3.82851724 C18.5325,3.74125862 18.4593621,3.65508621 18.3847759,3.57036207 C18.3793448,3.5642069 18.3717414,3.56167241 18.3659483,3.55587931 C18.0770172,3.22893103 17.7681724,2.92044828 17.4408621,2.63151724 C17.435431,2.62608621 17.4332586,2.61884483 17.4271034,2.61377586 C17.3423793,2.53955172 17.256569,2.46641379 17.1696724,2.39508621 C17.1671379,2.39291379 17.1638793,2.39255172 17.1609828,2.39037931 C16.8202759,2.11013793 16.4607414,1.8527069 16.0863621,1.61663793 C16.080931,1.61265517 16.0780345,1.60686207 16.0718793,1.60287931 C16.0320517,1.57789655 15.9911379,1.554 15.9509483,1.52974138 C15.9433448,1.52503448 15.9357414,1.52032759 15.9277759,1.51562069 C15.8836034,1.48882759 15.839431,1.46131034 15.7948966,1.43524138 C15.8177069,1.43922414 15.8387069,1.44827586 15.8629655,1.44827586 L16.2167069,1.44827586 C16.416569,1.44827586 16.5787759,1.28643103 16.5787759,1.0862069 C16.5787759,0.885982759 16.416569,0.724137931 16.2167069,0.724137931 L15.8629655,0.724137931 C15.6631034,0.724137931 15.5008966,0.885982759 15.5008966,1.0862069 C15.5008966,1.17781034 15.5378276,1.25891379 15.5935862,1.32263793 C15.3187759,1.16948276 15.036,1.029 14.7467069,0.900465517 C14.6829828,0.796913793 14.5736379,0.724137931 14.4432931,0.724137931 L14.3241724,0.724137931 C14.0026552,0.597775862 13.6738966,0.487344828 13.3378966,0.392844828 C13.3357241,0.392482759 13.3342759,0.390672414 13.3317414,0.389948276 C13.3302931,0.389586207 13.3284828,0.389948276 13.3270345,0.389948276 C12.426931,0.137586207 11.4793966,0 10.5,0 C9.52060345,0 8.57306897,0.137586207 7.67296552,0.389948276 C7.67115517,0.390310345 7.6697069,0.389948276 7.66825862,0.389948276 C7.66608621,0.390310345 7.66463793,0.39212069 7.66210345,0.392844828 C7.32610345,0.487344828 6.99734483,0.597775862 6.67582759,0.724137931 L6.5567069,0.724137931 C6.426,0.724137931 6.31701724,0.796913793 6.2532931,0.900465517 C5.96653448,1.02791379 5.68665517,1.16658621 5.41401724,1.3182931 C5.46796552,1.25493103 5.50381034,1.176 5.50381034,1.0862069 C5.50381034,0.885982759 5.34160345,0.724137931 5.14174138,0.724137931 L4.788,0.724137931 C4.58813793,0.724137931 4.42593103,0.885982759 4.42593103,1.0862069 C4.42593103,1.28643103 4.58813793,1.44827586 4.788,1.44827586 L5.14174138,1.44827586 C5.16346552,1.44827586 5.1822931,1.43958621 5.20293103,1.43596552 C5.1602069,1.46094828 5.1182069,1.48737931 5.07584483,1.51272414 C5.0657069,1.51887931 5.05593103,1.52467241 5.0457931,1.53082759 C5.00560345,1.55544828 4.96505172,1.57898276 4.92522414,1.60360345 C4.91943103,1.60722414 4.91653448,1.61301724 4.91110345,1.617 C4.53744828,1.85343103 4.17827586,2.1105 3.83793103,2.39037931 C3.83503448,2.39255172 3.83141379,2.39327586 3.82851724,2.39544828 C3.74125862,2.46713793 3.65508621,2.54027586 3.57036207,2.61522414 C3.5642069,2.62065517 3.56203448,2.62753448 3.55696552,2.63296552 C3.22965517,2.92225862 2.92044828,3.23110345 2.63151724,3.55841379 C2.62608621,3.5642069 2.61884483,3.56637931 2.61341379,3.57217241 C2.53882759,3.65689655 2.46568966,3.74306897 2.39363793,3.83032759 C2.39110345,3.83358621 2.39074138,3.83756897 2.3882069,3.84082759 C2.10868966,4.18044828 1.85198276,4.53962069 1.61627586,4.91291379 C1.6122931,4.9187069 1.60577586,4.92196552 1.60215517,4.92812069 C1.57608621,4.96975862 1.55146552,5.01212069 1.52612069,5.05412069 C1.52322414,5.05810345 1.52068966,5.06244828 1.51815517,5.0667931 C1.49027586,5.11277586 1.46203448,5.15839655 1.43487931,5.20474138 C1.43922414,5.1822931 1.44827586,5.1612931 1.44827586,5.13703448 L1.44827586,4.7832931 C1.44827586,4.58306897 1.28606897,4.42122414 1.0862069,4.42122414 C0.886344828,4.42122414 0.724137931,4.58306897 0.724137931,4.7832931 L0.724137931,5.13703448 C0.724137931,5.33725862 0.886344828,5.49910345 1.0862069,5.49910345 C1.17781034,5.49910345 1.25891379,5.46217241 1.32263793,5.40641379 C1.16948276,5.68122414 1.029,5.964 0.900465517,6.2532931 C0.796913793,6.31701724 0.724137931,6.42636207 0.724137931,6.5567069 L0.724137931,6.67582759 C0.598137931,6.99698276 0.487344828,7.32574138 0.393206897,7.66101724 C0.392482759,7.66391379 0.390310345,7.66572414 0.389586207,7.66825862 C0.389224138,7.67006897 0.389948276,7.67224138 0.389224138,7.67405172 C0.137586207,8.57415517 0,9.52096552 0,10.5 C0,11.4790345 0.137586207,12.4258448 0.389224138,13.3255862 C0.389586207,13.3273966 0.388862069,13.329569 0.389586207,13.3313793 C0.390310345,13.3346379 0.392482759,13.3371724 0.393568966,13.340431 C0.487706897,13.6753448 0.598137931,14.0033793 0.724137931,14.3241724 L0.724137931,14.4432931 C0.724137931,14.574 0.796913793,14.6829828 0.900465517,14.7467069 C1.02791379,15.0334655 1.16658621,15.3133448 1.3182931,15.5859828 C1.25493103,15.5320345 1.17563793,15.4961897 1.0862069,15.4961897 C0.886344828,15.4961897 0.724137931,15.6580345 0.724137931,15.8582586 L0.724137931,16.212 C0.724137931,16.4122241 0.886344828,16.574069 1.0862069,16.574069 C1.28606897,16.574069 1.44827586,16.4122241 1.44827586,16.212 L1.44827586,15.8582586 C1.44827586,15.8368966 1.43958621,15.818431 1.43596552,15.7977931 C1.46275862,15.8434138 1.49063793,15.8883103 1.51815517,15.9332069 C1.52068966,15.9375517 1.52322414,15.9418966 1.52612069,15.9462414 C1.55218966,15.9889655 1.57717241,16.0320517 1.60360345,16.0740517 C1.60939655,16.0834655 1.61772414,16.0903448 1.62424138,16.0990345 C1.85813793,16.4687069 2.11267241,16.8242586 2.38965517,17.1609828 C2.39218966,17.1646034 2.39291379,17.1685862 2.39544828,17.1722069 C2.4675,17.2594655 2.54063793,17.3456379 2.61522414,17.4303621 C2.6202931,17.4361552 2.62753448,17.4379655 2.63296552,17.4433966 C2.92225862,17.771069 3.23146552,18.0799138 3.55913793,18.3692069 C3.56456897,18.3746379 3.56674138,18.3818793 3.57289655,18.3869483 C3.65762069,18.4611724 3.74343103,18.5343103 3.83032759,18.6056379 C3.83322414,18.6081724 3.8372069,18.6088966 3.84010345,18.611069 C4.18044828,18.8909483 4.53962069,19.1480172 4.91363793,19.3840862 C4.91906897,19.388069 4.92196552,19.3938621 4.92812069,19.3978448 C4.96794828,19.4228276 5.00886207,19.4467241 5.04905172,19.4709828 C5.05665517,19.4756897 5.06425862,19.4803966 5.07222414,19.4851034 C5.11639655,19.5118966 5.1602069,19.5394138 5.20510345,19.5654828 C5.1822931,19.5607759 5.1612931,19.5517241 5.13703448,19.5517241 L4.7832931,19.5517241 C4.58343103,19.5517241 4.42122414,19.713569 4.42122414,19.9137931 C4.42122414,20.1140172 4.58343103,20.2758621 4.7832931,20.2758621 L5.13703448,20.2758621 C5.33689655,20.2758621 5.49910345,20.1140172 5.49910345,19.9137931 C5.49910345,19.8225517 5.46217241,19.7410862 5.40641379,19.6773621 C5.68122414,19.8305172 5.964,19.971 6.2532931,20.0995345 C6.31701724,20.2030862 6.42636207,20.2758621 6.5567069,20.2758621 L6.67582759,20.2758621 C6.99734483,20.4022241 7.32610345,20.5126552 7.66210345,20.6071552 C7.66427586,20.6075172 7.66572414,20.6093276 7.66825862,20.6100517 C7.6707931,20.6107759 7.67296552,20.6104138 7.6755,20.6107759 C8.57487931,20.8624138 9.52132759,21 10.5,21 C11.4786724,21 12.4251207,20.8624138 13.3245,20.6107759 C13.3270345,20.6104138 13.3292069,20.6104138 13.3317414,20.6100517 C13.3339138,20.6096897 13.3353621,20.6078793 13.3378966,20.6071552 C13.6738966,20.5126552 14.0026552,20.4022241 14.3241724,20.2758621 L14.4432931,20.2758621 C14.574,20.2758621 14.6829828,20.2030862 14.7467069,20.0995345 C15.0334655,19.9720862 15.3137069,19.8334138 15.5859828,19.6817069 C15.5320345,19.745069 15.4961897,19.824 15.4961897,19.9137931 C15.4961897,20.1140172 15.6583966,20.2758621 15.8582586,20.2758621 L16.212,20.2758621 C16.4118621,20.2758621 16.574069,20.1140172 16.574069,19.9137931 C16.574069,19.713569 16.4118621,19.5517241 16.212,19.5517241 L15.8582586,19.5517241 C15.8365345,19.5517241 15.8177069,19.5604138 15.797069,19.5640345 C15.8397931,19.5390517 15.8817931,19.5126207 15.9241552,19.4872759 C15.9342931,19.4811207 15.944069,19.4753276 15.9542069,19.4691724 C15.9943966,19.4445517 16.0349483,19.4210172 16.0747759,19.3963966 C16.080569,19.3927759 16.0834655,19.3869828 16.0888966,19.383 C16.4621897,19.1472931 16.8213621,18.8905862 17.1609828,18.611069 C17.1642414,18.6085345 17.1685862,18.6074483 17.1718448,18.6049138 C17.2591034,18.5332241 17.3452759,18.4600862 17.43,18.3851379 C17.4357931,18.380069 17.4379655,18.3728276 17.4433966,18.3673966 C17.771069,18.0777414 18.0802759,17.7681724 18.369931,17.4405 C18.375,17.435431 18.3818793,17.4336207 18.3865862,17.4281897 C18.4611724,17.3434655 18.5343103,17.2572931 18.6063621,17.1700345 C18.6088966,17.1667759 18.6092586,17.1627931 18.6117931,17.1595345 C18.8887759,16.8228103 19.1433103,16.4672586 19.3772069,16.0975862 C19.3837241,16.0888966 19.3920517,16.0820172 19.3978448,16.0726034 C19.4239138,16.0309655 19.4485345,15.9886034 19.4738793,15.9466034 C19.4764138,15.9422586 19.4793103,15.9379138 19.4818448,15.933569 C19.5097241,15.8875862 19.5379655,15.8419655 19.5651207,15.7956207 C19.5607759,15.818069 19.5517241,15.8387069 19.5517241,15.8629655 L19.5517241,16.2167069 C19.5517241,16.416931 19.713931,16.5787759 19.9137931,16.5787759 C20.1136552,16.5787759 20.2758621,16.416931 20.2758621,16.2167069 L20.2758621,15.8629655 C20.2758621,15.6627414 20.1136552,15.5008966 19.9137931,15.5008966 C19.8221897,15.5008966 19.7410862,15.5378276 19.6773621,15.5935862 C19.8305172,15.3187759 19.971,15.036 20.0995345,14.7467069 C20.2030862,14.6829828 20.2758621,14.5736379 20.2758621,14.4432931 L20.2758621,14.3241724 C20.4018621,14.0037414 20.511931,13.6757069 20.606431,13.340431 C20.6071552,13.3371724 20.6096897,13.335 20.6104138,13.3313793 Z M18.8536552,15.5729483 C18.0397241,16.9082586 16.9151379,18.033569 15.5809138,18.8485862 C15.5696897,18.8554655 15.5581034,18.8623448 15.5468793,18.8692241 C14.9096379,19.2548276 14.2242414,19.5687414 13.503,19.8019138 L12.4931897,15.7626724 C13.9968621,15.1909655 15.1913276,13.9965 15.7630345,12.4928276 L19.8022759,13.5026379 C19.5676552,14.2271379 19.2526552,14.9157931 18.8641552,15.555931 C18.8605345,15.5613621 18.8572759,15.5671552 18.8536552,15.5729483 Z M5.44986207,18.8670517 C5.44081034,18.8616207 5.43175862,18.8561897 5.4227069,18.8507586 C4.08775862,18.0361034 2.96208621,16.910069 2.1477931,15.5747586 C2.14344828,15.5678793 2.13910345,15.5606379 2.13512069,15.5537586 C1.74734483,14.9143448 1.43234483,14.2264138 1.19808621,13.5026379 L5.23732759,12.4928276 C5.80867241,13.9965 7.0035,15.1909655 8.50717241,15.7626724 L7.49736207,19.8019138 C6.77467241,19.5680172 6.08818966,19.2537414 5.44986207,18.8670517 Z M2.14634483,5.42705172 C2.96027586,4.09174138 4.08486207,2.96643103 5.41908621,2.15141379 C5.43031034,2.14453448 5.44189655,2.13765517 5.45312069,2.13077586 C6.09036207,1.74517241 6.77575862,1.43125862 7.497,1.19808621 L8.50681034,5.23732759 C7.00313793,5.80903448 5.80867241,7.0035 5.23696552,8.50717241 L1.19772414,7.49736207 C1.43234483,6.77286207 1.74734483,6.0842069 2.13584483,5.44406897 C2.13946552,5.43863793 2.14272414,5.43284483 2.14634483,5.42705172 Z M5.0237069,9.19981034 C4.9245,9.618 4.8662069,10.0517586 4.8662069,10.5 C4.8662069,10.9482414 4.9245,11.382 5.0237069,11.8001897 L1.00148276,12.8056552 C0.821534483,12.0659483 0.724137931,11.2943793 0.724137931,10.5 C0.724137931,9.70562069 0.821534483,8.93405172 1.00148276,8.19434483 L5.0237069,9.19981034 Z M5.59034483,10.5 C5.59034483,7.79281034 7.79281034,5.59034483 10.5,5.59034483 C13.2071897,5.59034483 15.4096552,7.79281034 15.4096552,10.5 C15.4096552,13.2071897 13.2071897,15.4096552 10.5,15.4096552 C7.79281034,15.4096552 5.59034483,13.2071897 5.59034483,10.5 Z M15.5501379,2.13294828 C15.5591897,2.13837931 15.5682414,2.14381034 15.5772931,2.14924138 C16.9107931,2.96317241 18.0350172,4.08703448 18.8489483,5.42017241 C18.8554655,5.43103448 18.8619828,5.44153448 18.8681379,5.45203448 C19.2541034,6.08963793 19.5680172,6.77539655 19.8015517,7.497 L15.7623103,8.50681034 C15.1909655,7.00313793 13.9961379,5.80867241 12.4924655,5.23696552 L13.5022759,1.19772414 C14.2253276,1.43198276 14.9118103,1.74625862 15.5501379,2.13294828 Z M20.2758621,10.5 C20.2758621,11.2943793 20.1784655,12.0659483 19.9985172,12.8056552 L15.9762931,11.8001897 C16.0755,11.382 16.1337931,10.9482414 16.1337931,10.5 C16.1337931,10.0517586 16.0755,9.618 15.9762931,9.19981034 L19.9985172,8.19434483 C20.1784655,8.93405172 20.2758621,9.70562069 20.2758621,10.5 Z M12.8056552,1.00148276 L11.8001897,5.02406897 C11.382,4.9245 10.9482414,4.8662069 10.5,4.8662069 C10.0517586,4.8662069 9.618,4.9245 9.19981034,5.0237069 L8.19434483,1.00112069 C8.93405172,0.821896552 9.70562069,0.724137931 10.5,0.724137931 C11.2943793,0.724137931 12.0659483,0.821896552 12.8056552,1.00148276 Z M8.19434483,19.9985172 L9.19981034,15.975931 C9.618,16.0751379 10.0517586,16.133431 10.5,16.133431 C10.9482414,16.133431 11.382,16.0751379 11.8001897,15.975931 L12.8056552,19.9985172 C12.0659483,20.1781034 11.2943793,20.2758621 10.5,20.2758621 C9.70562069,20.2758621 8.93405172,20.1781034 8.19434483,19.9985172 Z" id="Shape"></path>
                    <path d="M1.43306897,2.0417069 C1.5387931,2.0417069 1.64415517,1.99536207 1.71548276,1.90665517 C1.77305172,1.83496552 1.83822414,1.7697931 1.90882759,1.71367241 C2.06524138,1.58875862 2.09094828,1.36101724 1.96639655,1.20496552 C1.84148276,1.04818966 1.61374138,1.02248276 1.45732759,1.14703448 C1.34508621,1.23682759 1.24189655,1.3392931 1.15101724,1.45262069 C1.02574138,1.60831034 1.05036207,1.83641379 1.20641379,1.96168966 C1.27303448,2.01527586 1.35305172,2.0417069 1.43306897,2.0417069 Z" id="Shape"></path>
                    <path d="M1.0862069,3.73075862 C1.28606897,3.73075862 1.44827586,3.56891379 1.44827586,3.36868966 L1.44827586,3.01458621 C1.44827586,2.81436207 1.28606897,2.65251724 1.0862069,2.65251724 C0.886344828,2.65251724 0.724137931,2.81436207 0.724137931,3.01458621 L0.724137931,3.36868966 C0.724137931,3.56855172 0.886344828,3.73075862 1.0862069,3.73075862 Z" id="Shape"></path>
                    <path d="M3.0192931,1.44827586 L3.37303448,1.44827586 C3.57289655,1.44827586 3.73510345,1.28643103 3.73510345,1.0862069 C3.73510345,0.885982759 3.57289655,0.724137931 3.37303448,0.724137931 L3.0192931,0.724137931 C2.81943103,0.724137931 2.65722414,0.885982759 2.65722414,1.0862069 C2.65722414,1.28643103 2.81943103,1.44827586 3.0192931,1.44827586 Z" id="Shape"></path>
                    <path d="M19.5517241,3.0192931 L19.5517241,3.37339655 C19.5517241,3.57362069 19.713931,3.73546552 19.9137931,3.73546552 C20.1136552,3.73546552 20.2758621,3.57362069 20.2758621,3.37339655 L20.2758621,3.0192931 C20.2758621,2.81906897 20.1136552,2.65722414 19.9137931,2.65722414 C19.713931,2.65722414 19.5517241,2.81906897 19.5517241,3.0192931 Z" id="Shape"></path>
                    <path d="M19.2866897,1.90846552 C19.3583793,1.99825862 19.4637414,2.04496552 19.5701897,2.04496552 C19.6494828,2.04496552 19.7287759,2.01925862 19.7957586,1.96603448 C19.9521724,1.84112069 19.9778793,1.61337931 19.8533276,1.45732759 C19.7631724,1.34436207 19.6603448,1.24117241 19.5473793,1.1502931 C19.3916897,1.02574138 19.1635862,1.05036207 19.0383103,1.20605172 C18.9130345,1.36210345 18.9380172,1.5902069 19.094069,1.71512069 C19.1650345,1.77268966 19.2298448,1.8375 19.2866897,1.90846552 Z" id="Shape"></path>
                    <path d="M17.6313103,1.44827586 L17.9850517,1.44827586 C18.1849138,1.44827586 18.3471207,1.28643103 18.3471207,1.0862069 C18.3471207,0.885982759 18.1849138,0.724137931 17.9850517,0.724137931 L17.6313103,0.724137931 C17.4314483,0.724137931 17.2692414,0.885982759 17.2692414,1.0862069 C17.2692414,1.28643103 17.4314483,1.44827586 17.6313103,1.44827586 Z" id="Shape"></path>
                    <path d="M19.2848793,19.0933448 C19.2273103,19.1650345 19.1621379,19.2302069 19.0915345,19.2863276 C18.9351207,19.4112414 18.9094138,19.6389828 19.0339655,19.7950345 C19.1056552,19.8848276 19.2110172,19.9315345 19.3174655,19.9315345 C19.3967586,19.9315345 19.4760517,19.9058276 19.5430345,19.8526034 C19.6556379,19.7628103 19.7588276,19.6603448 19.8497069,19.5470172 C19.9749828,19.3909655 19.9503621,19.1628621 19.7943103,19.0379483 C19.6382586,18.9133966 19.4101552,18.9383793 19.2848793,19.0933448 Z" id="Shape"></path>
                    <path d="M17.9807069,19.5517241 L17.6269655,19.5517241 C17.4271034,19.5517241 17.2648966,19.713569 17.2648966,19.9137931 C17.2648966,20.1140172 17.4271034,20.2758621 17.6269655,20.2758621 L17.9807069,20.2758621 C18.180569,20.2758621 18.3427759,20.1140172 18.3427759,19.9137931 C18.3427759,19.713569 18.180569,19.5517241 17.9807069,19.5517241 Z" id="Shape"></path>
                    <path d="M19.9137931,17.2692414 C19.713931,17.2692414 19.5517241,17.4310862 19.5517241,17.6313103 L19.5517241,17.9854138 C19.5517241,18.1856379 19.713931,18.3474828 19.9137931,18.3474828 C20.1136552,18.3474828 20.2758621,18.1856379 20.2758621,17.9854138 L20.2758621,17.6313103 C20.2758621,17.4314483 20.1136552,17.2692414 19.9137931,17.2692414 Z" id="Shape"></path>
                    <path d="M3.36868966,19.5517241 L3.01494828,19.5517241 C2.81508621,19.5517241 2.65287931,19.713569 2.65287931,19.9137931 C2.65287931,20.1140172 2.81508621,20.2758621 3.01494828,20.2758621 L3.36868966,20.2758621 C3.56855172,20.2758621 3.73075862,20.1140172 3.73075862,19.9137931 C3.73075862,19.713569 3.56855172,19.5517241 3.36868966,19.5517241 Z" id="Shape"></path>
                    <path d="M1.44827586,17.9807069 L1.44827586,17.6266034 C1.44827586,17.4263793 1.28606897,17.2645345 1.0862069,17.2645345 C0.886344828,17.2645345 0.724137931,17.4263793 0.724137931,17.6266034 L0.724137931,17.9807069 C0.724137931,18.180931 0.886344828,18.3427759 1.0862069,18.3427759 C1.28606897,18.3427759 1.44827586,18.180931 1.44827586,17.9807069 Z" id="Shape"></path>
                    <path d="M1.71331034,19.0915345 C1.58839655,18.9347586 1.36065517,18.9097759 1.20460345,19.0339655 C1.04818966,19.1588793 1.02248276,19.3866207 1.14703448,19.5426724 C1.23718966,19.6556379 1.34001724,19.7588276 1.45298276,19.8497069 C1.51996552,19.902931 1.59998276,19.9293621 1.67927586,19.9293621 C1.785,19.9293621 1.89036207,19.8830172 1.96168966,19.7939483 C2.08696552,19.6378966 2.06198276,19.4097931 1.90593103,19.2848793 C1.83496552,19.2273103 1.77015517,19.1625 1.71331034,19.0915345 Z" id="Shape"></path>
                </g>
            </g>
        </g>
    </g>
</svg>