<?xml version="1.0" encoding="UTF-8"?>
<svg width="18px" height="18px" viewBox="0 0 18 18" version="1.1" xmlns="http://www.w3.org/2000/svg" xmlns:xlink="http://www.w3.org/1999/xlink">
    <!-- Generator: Sketch 43.1 (39012) - http://www.bohemiancoding.com/sketch -->
    <title>ring</title>
    <desc>Created with Sketch.</desc>
    <defs></defs>
    <g id="Symbols" stroke="none" stroke-width="1" fill="none" fill-rule="evenodd">
        <g id="sysnav" transform="translate(-1076.000000, -14.000000)" fill-rule="nonzero" fill="#FFFFFF">
            <g id="ring">
                <g transform="translate(1076.000000, 14.000000)">
                    <path d="M17.7,12.863707 C15.5870175,10.746 15.2690526,9.68340234 15.2690526,6.3 C15.2690526,2.82058594 12.4545614,0 8.98252632,0 C5.51049123,0 2.696,2.82062109 2.696,6.3 C2.696,8.12429297 2.64750877,8.80530469 2.39687719,9.64139062 C2.08519298,10.683 1.44533333,11.680207 0.264736842,12.863707 C-0.300842105,13.430707 0.0997894737,14.4 0.899824561,14.4 L5.88417544,14.4 L5.83894737,14.85 C5.83894737,16.589707 7.24621053,18 8.98221053,18 C10.7182105,18 12.1254737,16.589707 12.1254737,14.85 L12.0802456,14.4 L17.0649123,14.4 C17.8652632,14.4 18.2658947,13.430707 17.7,12.863707 Z M8.98280702,17.1 C7.74291228,17.1 6.73750877,16.0923164 6.73750877,14.85 L6.78273684,14.4 L11.1823509,14.4 L11.2281754,14.85 C11.2281404,16.0923164 10.2227018,17.1 8.98280702,17.1 Z M0.900105263,13.5 C3.59424561,10.8 3.59424561,9 3.59424561,6.3 C3.59424561,3.31801172 6.00663158,0.9 8.98252632,0.9 C11.9584211,0.9 14.370807,3.31801172 14.3710877,6.3 C14.3710877,9 14.3710877,10.8 17.0652281,13.5 L0.900105263,13.5 Z" id="Shape"></path>
                </g>
            </g>
        </g>
    </g>
</svg>