<?xml version="1.0" encoding="UTF-8"?>
<svg width="21px" height="21px" viewBox="0 0 21 21" version="1.1" xmlns="http://www.w3.org/2000/svg" xmlns:xlink="http://www.w3.org/1999/xlink">
    <!-- Generator: Sketch 43.1 (39012) - http://www.bohemiancoding.com/sketch -->
    <title>003-cogwheel</title>
    <desc>Created with Sketch.</desc>
    <defs></defs>
    <g id="Symbols" stroke="none" stroke-width="1" fill="none" fill-rule="evenodd">
        <g id="sidenav" transform="translate(-21.000000, -191.000000)" fill-rule="nonzero" fill="#339ECD">
            <g id="menu-::-item">
                <g transform="translate(0.000000, 176.000000)">
                    <g id="003-cogwheel" transform="translate(21.000000, 15.000000)">
                        <path d="M13.4614503,15.0943333 C13.2410936,14.9619064 13.014924,14.8287836 12.7887544,14.6982807 C12.8419298,14.2451228 12.8420526,13.7867251 12.789,13.3344678 C13.0160292,13.2034737 13.242076,13.0704327 13.4613684,12.9385789 C13.8306082,12.7167076 13.9845263,12.2485673 13.8193099,11.8495673 C13.8193099,11.8495673 13.8193099,11.8495673 13.819269,11.8495263 L13.3374152,10.6862164 C13.1721579,10.2873392 12.7325088,10.0650175 12.3143099,10.1691988 C12.0657895,10.2310526 11.8118655,10.2968363 11.5588421,10.3647076 C11.276345,10.0072573 10.9521754,9.68316959 10.5942749,9.40050877 C10.6621462,9.14744444 10.7279708,8.89339766 10.7898655,8.64479532 C10.8940468,8.22680117 10.6717661,7.7869883 10.2728889,7.62173099 L9.10957895,7.13987719 C8.71070175,6.97457895 8.2424386,7.12837427 8.02048538,7.49769591 C7.88830409,7.71768421 7.75514035,7.9438538 7.62447368,8.17039181 C7.1714386,8.11721637 6.71312281,8.11709357 6.26066082,8.17010526 C6.1295848,7.94287135 5.99650292,7.71678363 5.86481287,7.49769591 C5.64277778,7.12845614 5.17463743,6.97461988 4.7757193,7.13987719 L3.61240936,7.62173099 C3.21361404,7.78694737 2.99125146,8.22680117 3.09543275,8.64479532 C3.15745029,8.89388889 3.22319298,9.1478538 3.29094152,9.40026316 C2.93353216,9.68267836 2.60940351,10.0069298 2.32678363,10.3648304 C2.0731462,10.2967544 1.81909942,10.2310117 1.5709883,10.1691988 C1.15287135,10.0649357 0.713140351,10.2874211 0.547883041,10.6862573 L0.0661111111,11.8495263 C-0.0990643275,12.2484444 0.0548128655,12.7166257 0.42397076,12.9384971 C0.644,13.0707193 0.870169591,13.2038421 1.09666667,13.3345497 C1.04353216,13.7875439 1.04340936,14.2458596 1.09642105,14.6983626 C0.869719298,14.829152 0.643672515,14.9622339 0.423888889,15.0942924 C0.0547309942,15.3162047 -0.0991461988,15.784345 0.0660701754,16.1833041 L0.547964912,17.346614 C0.713181287,17.7454503 1.15278947,17.9678538 1.57107018,17.8636316 C1.81930409,17.8018187 2.07326901,17.736076 2.32645614,17.6681228 C2.60895322,18.0255322 2.93312281,18.3495789 3.29102339,18.6322807 C3.22307018,18.8856316 3.15728655,19.1396784 3.09543275,19.3879942 C2.99125146,19.8059883 3.21353216,20.2458421 3.61240936,20.4110585 L4.77576023,20.8929532 C4.88383041,20.9376959 4.99693567,20.9590643 5.1088538,20.9590643 C5.41022222,20.9590643 5.70299415,20.8043684 5.86497661,20.5351754 C5.99617544,20.3168655 6.12925731,20.0907778 6.2609883,19.8625205 C6.71394152,19.915614 7.17238012,19.9156959 7.62480117,19.8627661 C7.75493567,20.0884035 7.88801754,20.3144503 8.02064912,20.5352164 C8.24260234,20.9044561 8.71074269,21.0582515 9.10974269,20.8930351 L10.2730526,20.4111813 C10.671848,20.2459649 10.8942105,19.8061111 10.7900292,19.388117 C10.7285029,19.141152 10.6627602,18.8871871 10.5945205,18.6326491 C10.951848,18.3502339 11.2760175,18.0260234 11.5587193,17.6681228 C11.8116199,17.7359532 12.0656667,17.8016959 12.3143918,17.8636725 C12.732386,17.9679357 13.1722398,17.745614 13.3374971,17.346655 L13.8193509,16.1833041 C13.9844854,15.784386 13.8306082,15.3162047 13.4614503,15.0943333 Z M12.4901287,16.9405731 C12.2511871,16.8807251 12.0076199,16.8174386 11.7654444,16.7521871 C11.4225673,16.6599591 11.0607368,16.7805146 10.843614,17.0594912 C10.5940702,17.3800175 10.305269,17.6688596 9.98527485,17.9180351 C9.70662573,18.135076 9.58623392,18.4967836 9.67854386,18.8394561 C9.74416374,19.0831871 9.80740936,19.3265906 9.86688889,19.5638538 L8.79756725,20.0067368 C8.67038012,19.7945263 8.54302924,19.5776901 8.41854386,19.361386 C8.2414152,19.0537953 7.90050292,18.8833392 7.55005263,18.926731 C7.14761404,18.9767135 6.73911696,18.9766725 6.3361462,18.9265263 C5.98471345,18.8828889 5.64408772,19.053345 5.467,19.3610175 C5.341,19.5797778 5.21360819,19.7967368 5.08781287,20.0066959 L4.01849123,19.5637719 C4.07829825,19.3252398 4.1415848,19.0817135 4.20691813,18.8391696 C4.29922807,18.4963333 4.17859064,18.134462 3.89961404,17.9172982 C3.57908772,17.6677953 3.29028655,17.3790351 3.04107018,17.0590819 C2.82411111,16.7803509 2.46240351,16.66 2.11960819,16.752269 C1.8771462,16.8175614 1.63370175,16.880848 1.39525146,16.940614 L0.952327485,15.8713333 C1.16355556,15.7446784 1.38047368,15.6173275 1.59767836,15.492269 C1.90530994,15.3151404 2.07592982,14.9743099 2.03237427,14.6238187 C1.98230994,14.2213392 1.98243275,13.812883 2.03249708,13.4098713 C2.07621637,13.0590526 1.9057193,12.7178538 1.59792398,12.5406842 C1.38080117,12.4156667 1.16384211,12.2882749 0.95228655,12.1614152 L1.39521053,11.0921345 C1.63345614,11.1518596 1.87694152,11.2151462 2.1198538,11.2805205 C2.46256725,11.3728713 2.8244386,11.252193 3.04172515,10.9732164 C3.29122807,10.6526901 3.58002924,10.363848 3.89994152,10.1147135 C4.17863158,9.89771345 4.29902339,9.53596491 4.20671345,9.19316959 C4.14162573,8.95148538 4.07833918,8.70808187 4.01836842,8.4688538 L5.08769006,8.02597076 C5.21393567,8.23662573 5.34132749,8.45350292 5.46671345,8.67132164 C5.64388304,8.97895322 5.98508187,9.14981871 6.33520468,9.10597661 C6.73747953,9.05591228 7.14589474,9.05591228 7.54923392,9.10618129 C7.90025731,9.14990058 8.24125146,8.97919883 8.41833918,8.67156725 C8.54331579,8.45444444 8.67074854,8.23748538 8.79748538,8.02597076 L9.86680702,8.4688538 C9.80695906,8.70763158 9.74367251,8.95115789 9.67838012,9.19353801 C9.58607018,9.53633333 9.7067076,9.89820468 9.98568421,10.1153684 C10.3061696,10.3648713 10.5950117,10.6536316 10.8442281,10.9735848 C11.0611871,11.2522339 11.4227719,11.3726257 11.765731,11.2803567 C12.0080292,11.2151053 12.2514327,11.1518187 12.4900468,11.0920117 L12.9329298,12.1612924 C12.7219883,12.2877427 12.5051111,12.4150936 12.2875789,12.5403567 C11.9799474,12.7174854 11.8092865,13.0583567 11.852883,13.408848 C11.9029474,13.8111228 11.9028655,14.2196199 11.8526784,14.6228772 C11.8090409,14.9737368 11.9796199,15.3148538 12.2872924,15.4919825 C12.5040877,15.6167953 12.7210468,15.7441871 12.9329298,15.8711696 L12.4901287,16.9405731 Z" id="Shape"></path>
                        <path d="M9.89669006,12.792848 C9.89669006,12.792848 9.89669006,12.792848 9.89664912,12.792807 C9.22202924,11.1640175 7.34815789,10.3877544 5.71912281,11.0624152 C4.09037427,11.737117 3.31407018,13.611152 3.98877193,15.2399415 C4.3155614,16.0290175 4.93016959,16.6435029 5.71916374,16.9703743 C6.11366082,17.1337485 6.52817544,17.2154561 6.94269006,17.2154561 C7.35720468,17.2154561 7.7717193,17.1337485 8.16629825,16.9703743 C9.79504678,16.2956725 10.5713099,14.4216784 9.89669006,12.792848 Z M7.80725146,16.1036023 C7.24978947,16.3345205 6.63579532,16.3344795 6.07816959,16.1036023 C5.5207076,15.8726842 5.08650292,15.4384386 4.85554386,14.8809357 C4.37876608,13.7300702 4.92730409,12.405883 6.07821053,11.9291871 C6.36005263,11.8124386 6.65216959,11.7571754 6.93978363,11.7571754 C7.82673684,11.7571754 8.66992982,12.2827895 9.02995906,13.1518538 C9.50665497,14.3027193 8.95811696,15.6268655 7.80725146,16.1036023 Z" id="Shape"></path>
                        <path d="M20.326731,4.13188304 C20.1647895,4.10764912 19.9984678,4.08411111 19.8309591,4.06176023 C19.7465497,3.78106433 19.6338129,3.50892398 19.4947135,3.25045614 C19.5972164,3.11639181 19.6982456,2.98208187 19.7958772,2.8501462 C20.0126316,2.55700585 19.9812749,2.14126316 19.7230117,1.88312281 L19.0759006,1.23609357 C18.8176374,0.977789474 18.4018947,0.946473684 18.1088363,1.16330994 C17.9764503,1.26126901 17.8421813,1.36225731 17.7085263,1.46439181 C17.4500994,1.3252924 17.178,1.21255556 16.8972222,1.12810526 C16.8748304,0.960596491 16.8513743,0.794274854 16.8271404,0.632374269 C16.7732281,0.271894737 16.4571228,0 16.0918947,0 L15.1767368,0 C14.8115088,0 14.4954035,0.271894737 14.4414912,0.632333333 C14.4172982,0.794152047 14.3938012,0.96051462 14.3714094,1.12806433 C14.0906316,1.21251462 13.8184912,1.32525146 13.5601053,1.46435088 C13.4265322,1.36217544 13.2921813,1.2611462 13.1598363,1.16326901 C12.8666959,0.946432749 12.4509532,0.977748538 12.1927719,1.2360117 L11.5457427,1.883 C11.2874386,2.14122222 11.2560409,2.55700585 11.4728772,2.85018713 C11.5704269,2.98208187 11.6714561,3.11643275 11.7739181,3.25045614 C11.6349006,3.50888304 11.5221228,3.78098246 11.4376725,4.06176023 C11.2702047,4.08415205 11.1038421,4.10764912 10.9419415,4.13188304 C10.5814211,4.18583626 10.3095263,4.50190058 10.3095263,4.86716959 L10.3095263,5.78228655 C10.3095263,6.14751462 10.5813392,6.46361988 10.9418596,6.5175731 C11.1038012,6.54180702 11.2701228,6.56534503 11.4376316,6.58769591 C11.5220819,6.86843275 11.6348187,7.14053216 11.7738772,7.399 C11.6714971,7.53294152 11.5704678,7.66721053 11.4727135,7.79930994 C11.256,8.09236842 11.2873158,8.50819298 11.5455789,8.7662924 L12.1926901,9.41340351 C12.4509123,9.6717076 12.866655,9.70298246 13.1597544,9.48618713 C13.2921404,9.38830994 13.4264094,9.28723977 13.5600234,9.1851462 C13.8185322,9.32424561 14.0906725,9.43698246 14.3713684,9.52139181 C14.3936784,9.68885965 14.4172164,9.85522222 14.4414503,10.0171637 C14.4954035,10.3776433 14.8115088,10.649538 15.1767368,10.649538 L16.0918947,10.649538 C16.4571228,10.649538 16.7732281,10.3777251 16.8271404,10.0171228 C16.8513333,9.85518129 16.8748304,9.68885965 16.8972222,9.52135088 C17.1779591,9.43698246 17.4500585,9.32416374 17.7085263,9.18506433 C17.8420994,9.28723977 17.9764503,9.38826901 18.1087953,9.48618713 C18.4018538,9.70302339 18.8176784,9.6717076 19.0758596,9.41344444 L19.7229708,8.7664152 C19.9812339,8.50819298 20.0125906,8.09240936 19.7957544,7.79926901 C19.6980819,7.66721053 19.5970526,7.53285965 19.4947135,7.39904094 C19.633731,7.14061404 19.7465088,6.86855556 19.8309591,6.58773684 C19.9984269,6.56534503 20.1647895,6.54184795 20.3266901,6.51761404 C20.6872105,6.46366082 20.9591053,6.14759649 20.9591053,5.78232749 L20.9591053,4.86721053 C20.9590643,4.50194152 20.6872105,4.18583626 20.326731,4.13188304 Z M20.0678129,5.65493567 C19.9207719,5.67626316 19.7707427,5.69697661 19.6202222,5.7165848 C19.3224971,5.75543275 19.0787661,5.96674269 18.9994327,6.25484795 C18.9234152,6.53071345 18.8130936,6.79691813 18.6715789,7.04605263 C18.5237602,7.30611696 18.5465614,7.62795322 18.7296667,7.86607602 C18.8219766,7.98609942 18.9135497,8.10690058 19.0026667,8.22626901 L18.5358363,8.69314035 C18.4160994,8.60377778 18.2952982,8.51224561 18.1755205,8.42014035 C17.9375205,8.23695322 17.6156023,8.21431579 17.3554971,8.36197076 C17.1063216,8.50352632 16.840117,8.61384795 16.5644152,8.6898655 C16.2761462,8.7692807 16.0648363,9.0130117 16.0261111,9.31065497 C16.0065029,9.46117544 15.9858304,9.61124561 15.964462,9.75828655 L15.3041696,9.75828655 C15.2828421,9.61124561 15.2621696,9.46121637 15.2425205,9.31081871 C15.2036725,9.01305263 14.9924035,8.76932164 14.7042164,8.68990643 C14.4284327,8.61392982 14.1623099,8.50360819 13.9130526,8.36205263 C13.6529474,8.21427485 13.3310292,8.23699415 13.0930702,8.42014035 C12.9732515,8.51228655 12.8525322,8.60377778 12.7327135,8.69314035 L12.265883,8.22626901 C12.355,8.10677778 12.4465322,7.98605848 12.5389649,7.86591228 C12.7219474,7.62787135 12.7447485,7.30603509 12.5969708,7.04597076 C12.4554561,6.79683626 12.3451345,6.53059064 12.269117,6.25480702 C12.1897427,5.96661988 11.9460526,5.75535088 11.6483275,5.71650292 C11.497807,5.6968538 11.3477368,5.67622222 11.2006959,5.65481287 L11.2006959,4.99460234 C11.3477368,4.97327485 11.4977661,4.9525614 11.6482865,4.93295322 C11.9460117,4.89410526 12.1897427,4.68279532 12.269076,4.39469006 C12.3450936,4.1188655 12.4553743,3.85266082 12.5969298,3.60348538 C12.7447485,3.34342105 12.7219474,3.02154386 12.538924,2.78350292 C12.4464503,2.66331579 12.3549181,2.54255556 12.265883,2.42326901 L12.7327135,1.95639766 C12.8524503,2.04576023 12.9732105,2.1372924 13.0929474,2.22935673 C13.3308655,2.41254386 13.6527427,2.43538596 13.9130526,2.28756725 C14.1621462,2.14605263 14.4283918,2.03573099 14.7041345,1.95967251 C14.9924035,1.88025731 15.2037135,1.63652632 15.2424386,1.33888304 C15.2620877,1.18836257 15.2828012,1.03833333 15.3041287,0.891292398 L15.9644211,0.891292398 C15.9857485,1.0382924 16.0064211,1.18832164 16.0260292,1.33876023 C16.0648772,1.63652632 16.2761871,1.88025731 16.5643333,1.95963158 C16.8401579,2.03564912 17.1064035,2.1460117 17.355538,2.28752632 C17.6156842,2.43534503 17.9375614,2.41238012 18.1754795,2.22939766 C18.2952982,2.1372924 18.4160175,2.04576023 18.5358363,1.95639766 L19.0026667,2.42326901 C18.9136316,2.54259649 18.8220994,2.66339766 18.7296257,2.78362573 C18.5466023,3.02162573 18.5238421,3.34346199 18.671538,3.60352632 C18.8130526,3.85274269 18.9233743,4.1189883 18.9993918,4.39473099 C19.0787661,4.68291813 19.3224561,4.89418713 19.6201813,4.93303509 C19.7707018,4.95268421 19.9207719,4.97335673 20.0678129,4.99472515 L20.0678129,5.65493567 Z" id="Shape"></path>
                        <path d="M15.6343158,3.4252924 C14.5869766,3.4252924 13.7348596,4.27736842 13.7348596,5.32474854 C13.7348596,6.37216959 14.5869357,7.22424561 15.6343158,7.22424561 C16.6816959,7.22424561 17.5337719,6.37216959 17.5337719,5.32474854 C17.5337719,4.27736842 16.6816959,3.4252924 15.6343158,3.4252924 Z M15.6343158,6.3798655 C15.0525789,6.3798655 14.5791988,5.90652632 14.5791988,5.3247076 C14.5791988,4.74288889 15.052538,4.26959064 15.6343158,4.26959064 C16.2160936,4.26959064 16.6893918,4.74292982 16.6894327,5.3247076 C16.6894327,5.90652632 16.2160936,6.3798655 15.6343158,6.3798655 Z" id="Shape"></path>
                    </g>
                </g>
            </g>
        </g>
    </g>
</svg>