<?xml version="1.0" encoding="UTF-8"?>
<svg width="132px" height="28px" viewBox="0 0 132 28" version="1.1" xmlns="http://www.w3.org/2000/svg" xmlns:xlink="http://www.w3.org/1999/xlink">
    <!-- Generator: Sketch 43.1 (39012) - http://www.bohemiancoding.com/sketch -->
    <title>logo</title>
    <desc>Created with Sketch.</desc>
    <defs></defs>
    <g id="Page-1" stroke="none" stroke-width="1" fill="none" fill-rule="evenodd">
        <g id="Desktop-Landscape-Copy" transform="translate(-48.000000, -9.000000)">
            <g id="logo" transform="translate(48.000000, 8.000000)">
                <g id="Group-104" transform="translate(0.000000, 1.000000)" fill="#339ECD">
                    <path d="M11.8010328,27.0496501 L11.8723986,27.0496501 C11.8399596,27.0496501 11.8082035,27.0482843 11.7757645,27.0482843 L11.8010328,27.0496501 Z" id="Fill-92"></path>
                    <path d="M19.0615014,17.4718336 L25.3065737,17.4718336 C25.725832,17.4718336 26.0658276,17.1272502 26.0658276,16.7091742 C26.0658276,16.2910982 25.725832,15.9465148 25.3065737,15.9465148 L19.0615014,15.9465148 C18.6423821,15.9465148 18.3023865,16.2910982 18.3023865,16.7091742 C18.3023865,17.1272502 18.6423821,17.4718336 19.0615014,17.4718336" id="Fill-94"></path>
                    <path d="M26.5175837,18.9971524 L20.2722333,18.9971524 C19.8529749,18.9971524 19.5131184,19.3417358 19.5131184,19.7598118 C19.5131184,20.1778878 19.8529749,20.5224712 20.2722333,20.5224712 L26.5175837,20.5224712 C26.936703,20.5224712 27.2766986,20.1778878 27.2766986,19.7598118 C27.2766986,19.3417358 26.936703,18.9971524 26.5175837,18.9971524" id="Fill-96"></path>
                    <path d="M25.3066293,22.1864554 L19.061557,22.1864554 C18.6422986,22.1864554 18.3023031,22.5310388 18.3023031,22.9491148 C18.3023031,23.3671908 18.6422986,23.7117742 19.061557,23.7117742 L25.3066293,23.7117742 C25.7257486,23.7117742 26.0657442,23.3671908 26.0657442,22.9491148 C26.0657442,22.5310388 25.7257486,22.1864554 25.3066293,22.1864554" id="Fill-98"></path>
                    <polygon id="Fill-100" points="24.3350624 25.9047146 24.3350624 25.9282756 24.3627209 25.9187146 24.3630624 25.9040317"></polygon>
                    <path d="M24.469378,25.8748704 C24.4187611,25.884161 24.3787125,25.8981662 24.3463121,25.9099527 L24.3350484,26.4764006 L24.3350484,25.9138353 C24.30974,25.9231259 24.2884642,25.9304752 24.2720554,25.9304752 L14.3419594,25.9304752 C16.2983593,24.6824871 17.5555782,22.4275112 17.5555782,19.9678653 C17.5555782,17.5083581 16.2980812,15.3919089 14.3416813,14.0052554 L24.2794254,14.0052554 C24.4414274,14.0052554 24.6205335,14.0712601 24.6875592,14.0903959 L24.7607035,14.1186837 C27.5155716,14.5364824 29.4395711,16.9474567 29.4395711,19.9728572 C29.4395711,22.9462583 27.3563507,25.4366879 24.469378,25.8748704 L24.469378,25.8748704 Z M11.4900291,25.8144123 C11.2676762,25.848524 11.0699364,25.8571212 10.9034846,25.8535159 C5.51597991,25.3073131 1.27458713,19.9763239 1.27458713,13.4966309 C1.27458713,6.65516008 5.97945856,1.08899443 11.8198735,1.08899443 C13.905736,1.08899443 15.5897223,2.77544237 15.5897223,4.84835063 C15.5897223,6.92125888 13.905736,8.60770682 11.8198735,8.60770682 L11.8198735,8.87463761 L11.8198735,9.15196831 L11.8198735,9.18011737 L11.8198735,9.70662969 L17.0723534,9.70662969 C16.8171829,10.8153978 16.6653321,11.9241659 16.6247273,12.8944073 L11.8166752,12.9012019 C11.5627562,12.9012019 11.3105059,13.0194835 11.1515632,13.2193002 L10.5431866,13.9762744 L11.4916978,14.1418408 C14.3423766,14.6347961 16.4096053,17.0895887 16.4096053,19.9784039 C16.4096053,22.8669417 14.3400126,25.3211796 11.4900291,25.8144123 L11.4900291,25.8144123 Z M25.6996197,1.10937823 C27.7783902,1.10937823 29.4696075,2.78043432 29.4696075,4.85334258 C29.4696075,6.92611217 27.7783902,8.59730692 25.6996197,8.59730692 L14.9699431,8.59730692 C16.0470824,7.76531484 16.7330531,6.36118955 16.7330531,4.85334258 C16.7330531,3.34535694 16.0469434,1.94137031 14.9699431,1.10937823 L25.6996197,1.10937823 Z M24.9659523,13.0040916 C24.7417916,12.9466842 24.4326668,12.9167325 24.3671707,12.9110472 L17.799346,12.894546 L17.799346,12.8959326 L17.7620786,12.8959326 C17.8057426,11.9252752 17.9809551,10.8159525 18.2574014,9.70662969 L25.6996197,9.70662969 C28.41138,9.70662969 30.6175272,7.55731683 30.6175272,4.85334258 C30.6175272,2.14922966 28.41138,5.54661384e-05 25.6996197,5.54661384e-05 L11.8198735,5.54661384e-05 C5.42322856,5.54661384e-05 0.126667476,6.0236781 0.126667476,13.4966309 C0.126667476,20.6869838 4.98144289,26.5860849 11.0913513,27.0216328 L11.1008072,27.0231581 C11.772733,27.0930454 12.2755649,27.0397979 12.2755649,27.0397979 L24.3052901,27.0397979 C24.3764876,27.0397979 24.4241843,27.0409073 24.5028909,27.0214941 C24.5233323,27.0163635 24.5642152,27.0090142 24.6586352,26.9915424 C28.0940508,26.4701607 30.5876298,23.5210261 30.5876298,19.9777105 C30.5876298,16.3851688 28.2776067,13.5229773 24.9659523,13.0040916 L24.9659523,13.0040916 Z" id="Fill-102"></path>
                </g>
                <text id="Gesticket" font-family="Rajdhani-Medium, Rajdhani" font-size="24" font-weight="400" letter-spacing="0.00658185221" fill="#F5F4F2">
                    <tspan x="41" y="22">Ges</tspan>
                    <tspan x="76.2037456" y="22" font-family="Rajdhani-Bold, Rajdhani" font-weight="bold">ticket</tspan>
                </text>
            </g>
        </g>
    </g>
</svg>