<?xml version="1.0" encoding="UTF-8"?>
<svg width="201px" height="155px" viewBox="0 0 201 155" version="1.1" xmlns="http://www.w3.org/2000/svg" xmlns:xlink="http://www.w3.org/1999/xlink">
    <!-- Generator: Sketch 43.1 (39012) - http://www.bohemiancoding.com/sketch -->
    <title>logo</title>
    <desc>Created with Sketch.</desc>
    <defs></defs>
    <g id="Page-1" stroke="none" stroke-width="1" fill="none" fill-rule="evenodd">
        <g id="login" transform="translate(-540.000000, -69.000000)">
            <g id="logo" transform="translate(489.000000, 69.000000)">
                <g id="Group-104" transform="translate(101.000000, 0.000000)" fill="#339ECD">
                    <path d="M38.8652539,86.9271639 L39.1002885,86.9271639 C38.9934546,86.9271639 38.8888698,86.9227745 38.7820358,86.9227745 L38.8652539,86.9271639 Z" id="Fill-92"></path>
                    <path d="M62.7767166,56.1477482 L83.3440961,56.1477482 C84.7248721,56.1477482 85.8446058,55.0403898 85.8446058,53.6968544 C85.8446058,52.353319 84.7248721,51.2459606 83.3440961,51.2459606 L62.7767166,51.2459606 C61.3963986,51.2459606 60.2766648,52.353319 60.2766648,53.6968544 C60.2766648,55.0403898 61.3963986,56.1477482 62.7767166,56.1477482" id="Fill-94"></path>
                    <path d="M87.3324091,61.0495357 L66.7641137,61.0495357 C65.3833377,61.0495357 64.2640619,62.1568941 64.2640619,63.5004295 C64.2640619,64.8439649 65.3833377,65.9513232 66.7641137,65.9513232 L87.3324091,65.9513232 C88.7127271,65.9513232 89.8324609,64.8439649 89.8324609,63.5004295 C89.8324609,62.1568941 88.7127271,61.0495357 87.3324091,61.0495357" id="Fill-96"></path>
                    <path d="M83.3442793,71.2987278 L62.7768998,71.2987278 C61.3961238,71.2987278 60.27639,72.4060862 60.27639,73.7496216 C60.27639,75.093157 61.3961238,76.2005153 62.7768998,76.2005153 L83.3442793,76.2005153 C84.7245973,76.2005153 85.844331,75.093157 85.844331,73.7496216 C85.844331,72.4060862 84.7245973,71.2987278 83.3442793,71.2987278" id="Fill-98"></path>
                    <polygon id="Fill-100" points="80.1445427 83.2477819 80.1445427 83.3234978 80.2356327 83.2927725 80.2367573 83.2455872"></polygon>
                    <path d="M80.5868948,83.1518739 C80.4201942,83.1817303 80.2882992,83.2267376 80.1815924,83.2646151 L80.1444969,85.0849607 L80.1444969,83.2770923 C80.0611466,83.3069487 79.9910774,83.3305664 79.9370371,83.3305664 L47.2334839,83.3305664 C53.6766472,79.3200129 57.8171433,72.0733885 57.8171433,64.1690333 C57.8171433,56.2651237 53.6757313,49.4636707 47.232568,45.0075002 L79.9613094,45.0075002 C80.4948431,45.0075002 81.0847069,45.2196139 81.3054479,45.281109 L81.5463395,45.3720149 C90.6191597,46.7146591 96.9556162,54.4626027 96.9556162,64.1850755 C96.9556162,73.7404419 90.0947854,81.7437241 80.5868948,83.1518739 L80.5868948,83.1518739 Z M37.8410015,82.9575849 C37.1087094,83.0672067 36.4574777,83.094835 35.909289,83.0832489 C18.1662032,81.3279634 4.19769637,64.1962159 4.19769637,43.3729768 C4.19769637,21.3871229 19.6926133,3.49960893 38.9273035,3.49960893 C45.7968358,3.49960893 51.3428381,8.91920348 51.3428381,15.5807327 C51.3428381,22.242262 45.7968358,27.6618566 38.9273035,27.6618566 L38.9273035,28.5196694 L38.9273035,29.4109035 L38.9273035,29.5013637 L38.9273035,31.1933717 L56.2257016,31.1933717 C55.3853289,34.7565256 54.8852269,38.3196795 54.7515,41.437662 L38.9167703,41.4594972 C38.0805192,41.4594972 37.2497638,41.8396086 36.7263054,42.4817427 L34.7226918,44.9143662 L37.8464971,45.446433 C47.2348579,47.0306016 54.0430223,54.9193602 54.0430223,64.2029002 C54.0430223,73.4855489 47.2270724,81.3725251 37.8410015,82.9575849 L37.8410015,82.9575849 Z M84.6385449,3.56511464 C91.4847208,3.56511464 97.0545375,8.93524569 97.0545375,15.596775 C97.0545375,22.2578586 91.4847208,27.6284353 84.6385449,27.6284353 L49.3016711,27.6284353 C52.8490976,24.954733 55.1082577,20.4424147 55.1082577,15.596775 C55.1082577,10.7506895 52.8486396,6.23881693 49.3016711,3.56511464 L84.6385449,3.56511464 Z M82.2223015,41.7901451 C81.4840557,41.6056596 80.4659911,41.5094063 80.2502877,41.491136 L58.6199626,41.4381076 L58.6199626,41.4425638 L58.497227,41.4425638 C58.6410292,38.3232444 59.2180699,34.7583081 60.1285119,31.1933717 L84.6385449,31.1933717 C93.5693948,31.1933717 100.83507,24.2863074 100.83507,15.596775 C100.83507,6.90679689 93.5693948,0.000178246819 84.6385449,0.000178246819 L38.9273035,0.000178246819 C17.860738,0.000178246819 0.417163794,19.3577828 0.417163794,43.3729768 C0.417163794,66.4800033 16.4057711,85.4374438 36.5280049,86.8371269 L36.5591468,86.8420287 C38.7720521,87.0666197 40.4280673,86.8955028 40.4280673,86.8955028 L80.0464916,86.8955028 C80.2809717,86.8955028 80.438055,86.8990677 80.6972653,86.8366813 C80.7645867,86.8201935 80.8992296,86.7965758 81.2101904,86.740428 C92.52431,85.0649079 100.736607,75.5875245 100.736607,64.2006721 C100.736607,52.6556256 93.1288288,43.4576441 82.2223015,41.7901451 L82.2223015,41.7901451 Z" id="Fill-102"></path>
                </g>
                <text id="Gesticket" font-family="Rajdhani-Medium, Rajdhani" font-size="54" font-weight="400" letter-spacing="0.0197455566" fill="#F5F4F2">
                    <tspan x="48.9145023" y="155">Ges</tspan>
                    <tspan x="128.137739" y="155" font-family="Rajdhani-Bold, Rajdhani" font-weight="bold">ticket</tspan>
                </text>
            </g>
        </g>
    </g>
</svg>